<svg xmlns="http://www.w3.org/2000/svg" viewBox="0 0 107 76"><defs><style>.cls-1,.cls-4{fill:#fffdfd;}.cls-2{fill:#070000;}.cls-3{font-size:16.78px;font-family:Impact;}.cls-4{font-family:MyriadPro-Regular, Myriad Pro;}</style></defs><g id="Layer_2" data-name="Layer 2"><rect class="cls-1" width="107" height="76"/></g><g id="Layer_1" data-name="Layer 1"><path class="cls-2" d="M32.45,44.63a3.06,3.06,0,1,0-4.07,2.88l-.51,6.38h3l-.46-6.37A3.06,3.06,0,0,0,32.45,44.63Z"/><path class="cls-2" d="M11.17,35a.16.16,0,0,0-.1.15.17.17,0,0,0,.18.17.16.16,0,0,0,.17-.17.18.18,0,0,0-.1-.16v-.64H9.63a1.91,1.91,0,0,1,1.91-1.83h4.37V28.44a1.93,1.93,0,0,1,0-.24.17.17,0,0,0,.13-.16A.19.19,0,0,0,16,28L18,26a.11.11,0,0,0,.11-.12.12.12,0,1,0-.24,0v0L15.9,27.87h0a.18.18,0,0,0-.17.18.2.2,0,0,0,.06.13v4.16H11.54A2.07,2.07,0,0,0,9.47,34.4v.08h1.7Z"/><path class="cls-2" d="M31.58,37.44a.12.12,0,0,0-.12-.12.15.15,0,0,0-.1,0H29l-.88-.43a.36.36,0,0,0,0-.1.39.39,0,0,0-.39-.38.38.38,0,0,0,0,.76.37.37,0,0,0,.3-.15l.91.46h2.37l0,0v1.64a.12.12,0,0,0,.08.22.12.12,0,0,0,.12-.12.12.12,0,0,0,0-.1V37.54A.14.14,0,0,0,31.58,37.44ZM28,36.86l-.11-.06a.13.13,0,0,0-.12-.1.13.13,0,0,0-.12.13.12.12,0,0,0,.12.12h.06l.1.05a.22.22,0,0,1-.16.07.23.23,0,1,1,0-.46.23.23,0,0,1,.23.23Z"/><path class="cls-2" d="M47.49,33.53a.12.12,0,1,0-.24,0,.12.12,0,0,0,.24,0Z"/><path class="cls-2" d="M46.88,33.53a.12.12,0,0,0-.12-.13.13.13,0,0,0-.13.13.13.13,0,0,0,.13.12A.12.12,0,0,0,46.88,33.53Z"/><path class="cls-2" d="M46.3,33.53a.13.13,0,0,0-.13-.13.12.12,0,0,0-.12.13.12.12,0,0,0,.12.12A.13.13,0,0,0,46.3,33.53Z"/><path class="cls-2" d="M36.31,49.64V62H37l1.25-1.24V49.22H46a.12.12,0,0,0,.1.05.12.12,0,0,0,.12-.12.12.12,0,0,0-.22-.08H38.1V60.71l-1.17,1.15h-.47V49.71l1.13-1.14h9.68a.14.14,0,0,0,.1,0,.12.12,0,0,0,.12-.12.12.12,0,0,0-.12-.13.14.14,0,0,0-.1.05H37.53Z"/><rect class="cls-2" x="47.5" y="46.63" width="0.15" height="0.5"/><rect class="cls-2" x="46.61" y="46.63" width="0.15" height="0.5"/><rect class="cls-2" x="45.73" y="46.63" width="0.15" height="0.5"/><rect class="cls-2" x="44.84" y="46.63" width="0.15" height="0.5"/><rect class="cls-2" x="43.95" y="46.63" width="0.15" height="0.5"/><rect class="cls-2" x="43.06" y="46.63" width="0.15" height="0.5"/><rect class="cls-2" x="42.18" y="46.63" width="0.15" height="0.5"/><rect class="cls-2" x="41.29" y="46.63" width="0.15" height="0.5"/><rect class="cls-2" x="40.4" y="46.63" width="0.15" height="0.5"/><rect class="cls-2" x="39.52" y="46.63" width="0.15" height="0.5"/><rect class="cls-2" x="38.63" y="46.63" width="0.15" height="0.5"/><rect class="cls-2" x="37.74" y="46.63" width="0.15" height="0.5"/><path class="cls-2" d="M12,36.75a.14.14,0,0,0-.1,0,.12.12,0,0,0-.12.13.12.12,0,0,0,.12.12.18.18,0,0,0,.1,0H22.2v5.94a.14.14,0,0,0-.05.1.12.12,0,0,0,.13.12A.12.12,0,0,0,22.4,43a.14.14,0,0,0,0-.1v-6.1Z"/><path class="cls-2" d="M29.87,15a.38.38,0,1,0-.38.39A.38.38,0,0,0,29.87,15Zm-.61,0a.23.23,0,1,1,.23.23A.22.22,0,0,1,29.26,15Z"/><path class="cls-2" d="M32.63,15a.39.39,0,0,0-.77,0,.39.39,0,1,0,.77,0ZM32,15a.22.22,0,0,1,.23-.22.23.23,0,1,1,0,.45A.23.23,0,0,1,32,15Z"/><path class="cls-2" d="M30.79,15a.38.38,0,1,0-.38.39A.38.38,0,0,0,30.79,15Zm-.61,0a.23.23,0,1,1,.23.23A.22.22,0,0,1,30.18,15Z"/><path class="cls-2" d="M31.71,15a.38.38,0,0,0-.38-.38.39.39,0,1,0,0,.77A.38.38,0,0,0,31.71,15Zm-.61,0a.22.22,0,0,1,.23-.22.23.23,0,1,1,0,.45A.23.23,0,0,1,31.1,15Z"/><path class="cls-2" d="M37.27,55.73a.38.38,0,1,0,.38.38A.38.38,0,0,0,37.27,55.73Zm0,.61a.23.23,0,0,1-.23-.23.23.23,0,0,1,.46,0A.23.23,0,0,1,37.27,56.34Z"/><path class="cls-2" d="M37.27,58.48a.38.38,0,1,0,.38.38A.38.38,0,0,0,37.27,58.48Zm0,.61a.23.23,0,0,1-.23-.23.23.23,0,0,1,.46,0A.23.23,0,0,1,37.27,59.09Z"/><path class="cls-2" d="M37.27,56.64a.39.39,0,0,0-.38.39.38.38,0,1,0,.76,0A.39.39,0,0,0,37.27,56.64Zm0,.62A.23.23,0,0,1,37,57a.23.23,0,1,1,.46,0A.23.23,0,0,1,37.27,57.26Z"/><path class="cls-2" d="M37.27,57.56a.39.39,0,1,0,.38.38A.38.38,0,0,0,37.27,57.56Zm0,.61a.23.23,0,0,1-.23-.23.23.23,0,0,1,.46,0A.23.23,0,0,1,37.27,58.17Z"/><path class="cls-2" d="M32.25,61.27l.66-.66V56.39a.1.1,0,0,0,0-.09.12.12,0,1,0-.24,0,.13.13,0,0,0,0,.09v3.43l-.48-.48v-.87a.39.39,0,0,0,.3-.38.39.39,0,0,0-.77,0,.39.39,0,0,0,.32.38v.94l.63.63v.51l-.57.57H29.84V57.28a.38.38,0,1,0-.16,0v4Zm-.13-3.07v.11a.22.22,0,0,1-.16-.22.23.23,0,0,1,.23-.23.23.23,0,0,1,.08.45v-.13a.1.1,0,0,0,0-.09.13.13,0,0,0-.12-.12.13.13,0,0,0-.13.12A.14.14,0,0,0,32.12,58.2Zm-2.59-1.29a.23.23,0,1,1,.46,0,.23.23,0,0,1-.15.21V57a.13.13,0,0,0,0-.09.12.12,0,1,0-.24,0,.1.1,0,0,0,0,.09v.12A.22.22,0,0,1,29.53,56.91Z"/><path class="cls-2" d="M30.75,58.09a.39.39,0,0,0-.77,0,.39.39,0,0,0,.31.38v2.19h1.22a.12.12,0,0,0,.09.05.13.13,0,0,0,.13-.13.12.12,0,0,0-.13-.12.15.15,0,0,0-.09,0H30.44v-2A.39.39,0,0,0,30.75,58.09ZM30.36,58a.13.13,0,0,0-.12.12.12.12,0,0,0,.05.1v.12a.23.23,0,0,1,.07-.45.23.23,0,0,1,.23.23.23.23,0,0,1-.15.22v-.12a.12.12,0,0,0,0-.1A.13.13,0,0,0,30.36,58Z"/><path class="cls-2" d="M12.47,37.57a.14.14,0,0,0,.1,0h9v6.39a.39.39,0,0,0-.31.38.38.38,0,0,0,.38.38.39.39,0,0,0,.39-.38.4.4,0,0,0-.31-.38V37.36H12.57a.18.18,0,0,0-.1,0,.12.12,0,0,0-.12.12A.12.12,0,0,0,12.47,37.57Zm9.27,6.62v-.12a.23.23,0,0,1,.15.22.23.23,0,0,1-.23.23.23.23,0,0,1-.07-.45v.12a.12.12,0,0,0-.05.1.12.12,0,0,0,.12.12.12.12,0,0,0,.08-.22Z"/><path class="cls-2" d="M10.8,49.72a.12.12,0,0,0,.12.12.12.12,0,0,0,.1,0h4.19v.89a.39.39,0,0,0-.31.38.39.39,0,0,0,.77,0,.39.39,0,0,0-.31-.38v-1H11a.15.15,0,0,0-.1,0A.12.12,0,0,0,10.8,49.72Zm4.49,1.47a.13.13,0,0,0,.12-.12.13.13,0,0,0-.06-.11h0v-.11a.23.23,0,0,1,.15.22.22.22,0,0,1-.22.22.22.22,0,0,1-.23-.22.23.23,0,0,1,.15-.22V51h0a.13.13,0,0,0-.06.11A.13.13,0,0,0,15.29,51.19Z"/><path class="cls-2" d="M48.06,36.91V36.8l-.05,0-1.22-1.22H40.61l-.37.37a.41.41,0,0,0-.22-.07.39.39,0,0,0-.37.31H38.29a.14.14,0,0,0-.1,0h0l-.57-.57h-9.2l-.87-.44a.28.28,0,0,0,0-.09.39.39,0,1,0-.08.23l.91.45h9.17l.52.53h0a.12.12,0,0,0,.12.12.14.14,0,0,0,.1-.05h1.36a.38.38,0,0,0,.76-.07.38.38,0,0,0-.07-.21l.33-.33h3.45l-.42.43a.34.34,0,0,0-.2-.06.38.38,0,0,0,0,.76.39.39,0,0,0,.39-.38.35.35,0,0,0-.08-.22l.53-.53H46l-.43.43a.36.36,0,0,0-.2-.06.38.38,0,1,0,.38.38.36.36,0,0,0-.07-.22l.54-.53h.55l.53.54-.89.89a.46.46,0,0,0-.2,0,.38.38,0,1,0,0,.76.39.39,0,0,0,.39-.38.4.4,0,0,0-.08-.23l.89-.88.53.53v3H43.77a.39.39,0,0,0-.38-.3.38.38,0,0,0,0,.76.39.39,0,0,0,.38-.3h4.28ZM27.17,35.22a.23.23,0,1,1,0-.45.23.23,0,1,1,0,.45ZM40,36l.1,0L40,36.1h0a.12.12,0,0,0-.09,0h-.12A.23.23,0,0,1,40,36Zm0,.46a.24.24,0,0,1-.21-.16h.12a.12.12,0,0,0,.09.05.12.12,0,0,0,.13-.12v0l.08-.08a.16.16,0,0,1,0,.1A.23.23,0,0,1,40,36.45Zm3.48.21a.23.23,0,0,1-.23-.23.24.24,0,0,1,.23-.23.23.23,0,0,1,.23.23A.23.23,0,0,1,43.5,36.66Zm1.83,0a.23.23,0,0,1-.23-.23.23.23,0,0,1,.46,0A.23.23,0,0,1,45.33,36.66Zm.84,1a.23.23,0,1,1,0-.46l.08,0-.09.09a.13.13,0,0,0-.11.12.12.12,0,0,0,.12.13.13.13,0,0,0,.13-.13s0,0,0,0l.08-.08a.27.27,0,0,1,0,.12A.23.23,0,0,1,46.17,37.67Zm-2.78,2.45a.23.23,0,1,1,.23-.23A.23.23,0,0,1,43.39,40.12Z"/><path class="cls-2" d="M24.72,44.52a.16.16,0,0,0-.11.13H24a.16.16,0,0,0-.15-.09.17.17,0,0,0-.17.17.16.16,0,0,0,.1.16v5L25,51.16v3.61l-.61.61v1.87h0v5H23.29v-1.9l.64-.64V54.85l.6-.59V51.71l-.38-.38a.36.36,0,0,0,.06-.2.38.38,0,1,0-.76,0,.37.37,0,0,0,.59.31l.33.33v2.42l-.59.6v4.84l-.64.64v2.12h1.39v-5l1.06,1.07v1.63a.11.11,0,0,0-.05.1.13.13,0,0,0,.13.12.13.13,0,0,0,.12-.12.18.18,0,0,0,0-.1V58.42L24.53,57.2V55.44l.61-.61V51.1l-1.23-1.23v-5A.14.14,0,0,0,24,44.8h.65a.18.18,0,0,0,.14.06.17.17,0,0,0,.09-.32,4.48,4.48,0,0,1,1.61-3.4h0l.16-.12V36.75H26a.11.11,0,0,0-.09,0,.13.13,0,0,0-.13.13A.12.12,0,0,0,26,37a.13.13,0,0,0,.09,0h.44v4A4.65,4.65,0,0,0,24.72,44.52ZM24,51.22,24,51.13h0a.12.12,0,0,0-.12-.13.13.13,0,0,0-.13.13.12.12,0,0,0,.13.12h0l.08.08a.17.17,0,0,1-.1,0,.23.23,0,0,1-.23-.23.23.23,0,0,1,.23-.23.23.23,0,0,1,.23.23A.29.29,0,0,1,24,51.22Z"/><path class="cls-2" d="M32.68,40.64a.13.13,0,0,0-.09,0H29.54v.5a.37.37,0,0,0-.27.28,3.14,3.14,0,0,0-1,6.07l-.45,6.36H31l-.45-6.36a3.14,3.14,0,0,0,1.19-5.08.43.43,0,0,0,0-.17.36.36,0,0,0-.71,0,.36.36,0,0,0,.36.36.38.38,0,0,0,.21-.07,3,3,0,0,1-1.2,4.83l0,0,.44,6.32H28l.45-6.32-.06,0a3,3,0,0,1,.89-5.79.37.37,0,0,0,.35.27.35.35,0,0,0,.35-.35.37.37,0,0,0-.27-.35v-.34h2.89a.1.1,0,0,0,.09,0h0l.57.92h3v.48l-1.43.48a.4.4,0,0,0-.33-.19.38.38,0,1,0,0,.76A.38.38,0,0,0,34.9,43a.09.09,0,0,0,0-.05l1.54-.51V41.8h.77a.39.39,0,0,0,.38.31.39.39,0,0,0,0-.77.39.39,0,0,0-.38.31H33.32l-.52-.88h0A.12.12,0,0,0,32.68,40.64Zm-1.49,1.64a.2.2,0,1,1,.4,0,.43.43,0,0,1,0,0l-.07-.06a.13.13,0,0,0-.12-.11.13.13,0,0,0-.13.12.13.13,0,0,0,.13.13h0l.06.06-.1,0A.2.2,0,0,1,31.19,42.28Zm-1.65-.94v.09a0,0,0,0,0,0,0h-.09A.2.2,0,0,1,29.54,41.34Zm.28.19a.2.2,0,0,1-.2.2.2.2,0,0,1-.19-.13h.09a.18.18,0,0,0,.1,0,.13.13,0,0,0,.12-.12.18.18,0,0,0,0-.1v-.09A.2.2,0,0,1,29.82,41.53Zm4.7,1.65a.23.23,0,0,1,0-.46.26.26,0,0,1,.18.09l-.12,0a.07.07,0,0,0-.06,0,.12.12,0,1,0,0,.24.11.11,0,0,0,.11-.08l.12,0A.24.24,0,0,1,34.52,43.18Zm3.06-1.68a.23.23,0,0,1,.23.23.24.24,0,0,1-.23.23.23.23,0,0,1-.23-.23A.23.23,0,0,1,37.58,41.5Z"/><path class="cls-2" d="M15,42.26H11.67v.15H15a.12.12,0,0,0,.1.05.12.12,0,0,0,.12-.12.13.13,0,0,0-.12-.13A.12.12,0,0,0,15,42.26Z"/><path class="cls-2" d="M16.24,41.85a.13.13,0,0,0,.13-.12.13.13,0,0,0-.13-.13.12.12,0,0,0-.09,0H11.06v.15h5.09A.12.12,0,0,0,16.24,41.85Z"/><path class="cls-2" d="M19.29,44.81l.54-.55h.6l.66-.67V38H13.22a.14.14,0,0,0-.1,0,.12.12,0,0,0-.12.12.12.12,0,0,0,.12.13.14.14,0,0,0,.1,0h7.72v3.41l-.46-.46v-.79a.38.38,0,1,0-.16,0v.86l.62.61v1.77l-.57.58h-3l-.72.72v8.44h-6l-.57.19,0,0v-1.3h4.1a.19.19,0,0,0,.17.11.18.18,0,0,0,.17-.17.18.18,0,0,0-.17-.18.19.19,0,0,0-.15.08H9.9v1.46a.16.16,0,0,0-.1.15.18.18,0,0,0,.18.18.17.17,0,0,0,.17-.16l.53-.18,6.13,0V44.89l.62-.63h2.19l-.4.4H17.3v1.2a.1.1,0,0,0,0,.09.12.12,0,1,0,.24,0,.13.13,0,0,0,0-.09v-1Zm1-4.68a.23.23,0,0,1-.15-.21.23.23,0,1,1,.46,0,.22.22,0,0,1-.15.21v-.24h-.16Z"/><path class="cls-2" d="M40.65,36.75H34.59a.39.39,0,0,0-.38-.3.38.38,0,1,0,0,.76.39.39,0,0,0,.38-.3h6l1.16.58V39.7l-1.11-1.11H37.61l-1.23-1.23H35.2a.39.39,0,0,0-.38-.3.38.38,0,1,0,0,.76.39.39,0,0,0,.38-.3h1.12l1.23,1.22h3.06l1.17,1.18v1l-.21-.22a.37.37,0,0,0,.06-.21.38.38,0,1,0-.38.38.37.37,0,0,0,.21-.06l.32.33v.61l.66.65H45l.62-.61h1.7a.2.2,0,0,0,.15.09.18.18,0,0,0,.18-.17.18.18,0,0,0-.18-.18.19.19,0,0,0-.16.11H45.5l-.61.61H42.5l-.56-.57v-4.3Zm-6.44.31a.23.23,0,1,1,.23-.23A.23.23,0,0,1,34.21,37.06Zm.61.61a.23.23,0,1,1,0-.46.23.23,0,1,1,0,.46Zm6.64,2.93-.09-.09h0a.12.12,0,0,0-.12-.12.12.12,0,0,0-.13.12.13.13,0,0,0,.13.13h0l.09.09-.1,0a.23.23,0,1,1,.23-.23A.3.3,0,0,1,41.46,40.6Z"/><path class="cls-2" d="M22.09,57.12h0l1-1a.37.37,0,0,0,.59-.31.38.38,0,1,0-.76,0,.39.39,0,0,0,.06.21l-.85.85V55.29l.6-.6V52.78l.54-.54h0a.12.12,0,0,0,.12-.13.12.12,0,0,0-.12-.12.12.12,0,0,0-.13.12v0l-.43.43V51.39A.39.39,0,0,0,23,51a.38.38,0,1,0-.76,0,.39.39,0,0,0,.3.38v3.24l-.6.6v3.06l-.47.54-.55-.54v-3l1.2-1.19V52.49a.38.38,0,1,0-.48-.37.39.39,0,0,0,.32.38V54l-1,1V51.48h-.63v-.43H21.5V50.3H19.67v-.44h2.42v-.77H19v-.46h3.75v-.74H19.67v-.53h2.44v-.74H20.2v-.48h1.3v-.75h-.42a.34.34,0,0,0-.34-.29.36.36,0,1,0,0,.71.36.36,0,0,0,.34-.27h.27V46h-1.3v.79H22v.43H19.51V48h3.06v.44H18.82v.76h3.11v.47H19.51v.75h1.84v.44H20.12v.74h.64v2.22l-.43-.43h0a.12.12,0,1,0-.24,0,.12.12,0,0,0,.12.12h0l.54.54v4.27l1.17,1.17v1l-1-1a.09.09,0,0,0,0,0,.12.12,0,0,0-.12-.13.12.12,0,0,0-.05.24l1.14,1.14v1l-1.68-1.65V56.53l-.67-.66V54.65h0V53.25a.38.38,0,0,0,.31-.37.38.38,0,1,0-.76,0,.38.38,0,0,0,.3.37v1.23L19,54.06h0a.12.12,0,0,0-.12-.13.13.13,0,0,0-.13.13.12.12,0,0,0,.13.12h0l.53.53v1.23l.67.67v2.16L19,57.68h0a.12.12,0,1,0-.24,0,.12.12,0,0,0,.12.12h0L20.1,59v1.24l1.22,1.2-.48.46-2.42-2.39V46.73l1.11-1.11h0a.18.18,0,0,0,.18-.18.18.18,0,0,0-.18-.17.18.18,0,0,0-.17.17.24.24,0,0,0,0,.08l-1.15,1.14V59.55l2.58,2.54.59-.57.5.49v.74a.19.19,0,0,0-.09.16.17.17,0,0,0,.17.17.17.17,0,0,0,.08-.33v-2h0V59.46l-.52-.52.52-.59Zm1.17-1.5a.23.23,0,1,1,0,.45.18.18,0,0,1-.1,0l.09-.08h0a.13.13,0,0,0,.13-.12.13.13,0,0,0-.13-.13.12.12,0,0,0-.12.13h0l-.08.08a.16.16,0,0,1,0-.09A.23.23,0,0,1,23.26,55.62ZM22.38,51a.23.23,0,0,1,.46,0,.23.23,0,0,1-.15.22v-.12a.15.15,0,0,0,0-.1.12.12,0,0,0-.24,0,.15.15,0,0,0,0,.1v.12A.23.23,0,0,1,22.38,51Zm-.6,1.11a.24.24,0,0,1,.23-.23.23.23,0,0,1,.23.23.22.22,0,0,1-.13.21V52.2a.19.19,0,0,0,0-.08A.12.12,0,0,0,22,52a.12.12,0,0,0-.06.23v.11A.23.23,0,0,1,21.78,52.12Zm-1-6.47a.2.2,0,0,1,0-.4.19.19,0,0,1,.18.14h-.08a.11.11,0,0,0-.1-.06.12.12,0,0,0-.13.12.13.13,0,0,0,.13.13.12.12,0,0,0,.08,0h.09A.18.18,0,0,1,20.74,45.65ZM19.43,53v.12a.22.22,0,0,1-.15-.21.23.23,0,0,1,.23-.23.23.23,0,0,1,.23.23.23.23,0,0,1-.16.21V53a.11.11,0,0,0,.05-.09.12.12,0,0,0-.12-.13.13.13,0,0,0-.13.13A.11.11,0,0,0,19.43,53Z"/><path class="cls-2" d="M10.51,45a.39.39,0,0,0-.3.38.38.38,0,1,0,.76,0,.39.39,0,0,0-.3-.38v-.82h1.08v.17a.39.39,0,0,0-.31.38.38.38,0,0,0,.38.38.39.39,0,0,0,.39-.38.4.4,0,0,0-.31-.38v-.17H13v.75a.39.39,0,0,0-.31.37.4.4,0,0,0,.39.39.39.39,0,0,0,.38-.39.38.38,0,0,0-.31-.37v-.75H14.2v.17a.39.39,0,0,0-.3.38.38.38,0,1,0,.76,0,.39.39,0,0,0-.31-.38v-.17h.47a.11.11,0,0,0,.09.05.13.13,0,0,0,.13-.13.12.12,0,0,0-.13-.12.11.11,0,0,0-.09,0h-4.2L9.47,42.92l.82-.84.88.92h4.55a.39.39,0,0,0,.38.3.38.38,0,0,0,0-.76.39.39,0,0,0-.38.31H11.23L9.77,41.32a.14.14,0,0,0,0-.09.18.18,0,0,0-.17-.18v-.48h2.62a.38.38,0,0,0,.37.34.38.38,0,1,0,0-.76.38.38,0,0,0-.36.27H9.48v.11h0v.62a.19.19,0,0,0,0,.08.17.17,0,0,0,.18.17h0l.55.57-.92,1,1.25,1.18Zm3.84-.49a.24.24,0,0,1,.16.22.23.23,0,0,1-.23.23.23.23,0,0,1-.23-.23.23.23,0,0,1,.15-.22v.2h.15Zm-1.24.58a.23.23,0,0,1,.16.21.23.23,0,0,1-.23.23.23.23,0,0,1-.23-.23.22.22,0,0,1,.15-.21v.24h.15Zm-1.21-.58a.23.23,0,0,1,.15.22.23.23,0,0,1-.23.23.23.23,0,0,1-.23-.23.24.24,0,0,1,.16-.22v.2h.15Zm4.2-1.79a.23.23,0,0,1,0,.46.24.24,0,0,1-.22-.15h.29v-.15h-.29A.24.24,0,0,1,16.1,42.69Zm-3.68-2.27a.24.24,0,0,1,.2-.12.23.23,0,0,1,.23.23.23.23,0,0,1-.23.23.22.22,0,0,1-.22-.19h.22v-.15ZM10.67,45.3v-.17a.24.24,0,0,1,.15.22.23.23,0,0,1-.46,0,.23.23,0,0,1,.15-.22v.17Z"/><path class="cls-2" d="M25.67,61.57a.12.12,0,0,0-.12.12.12.12,0,0,0,.05.1v1.49H11.54a1.43,1.43,0,0,1-1.25-.6l0-.06h7.17V60.93h-7.2l1-.73h.8a.38.38,0,0,0,.37.31.39.39,0,0,0,.39-.38.4.4,0,0,0-.39-.39.39.39,0,0,0-.37.31h-.85L10,60.93H9.69l-.06,0V59.6a.2.2,0,0,0,.08-.08h7.6a.13.13,0,0,0,.09,0,.13.13,0,0,0,.12-.12.13.13,0,0,0-.12-.13.1.1,0,0,0-.1.06H9.71a.18.18,0,0,0-.16-.1.18.18,0,0,0-.17.17.19.19,0,0,0,.09.16v1.29a.17.17,0,0,0-.09.15.18.18,0,0,0,.17.18.17.17,0,0,0,.17-.13h7.62v1.37h-7a.17.17,0,0,0-.14-.07.18.18,0,0,0-.17.18.17.17,0,0,0,.17.17,1.56,1.56,0,0,0,1.39.69H25.75V61.79a.12.12,0,0,0-.08-.22ZM12.48,60a.11.11,0,0,0-.09,0h-.12a.22.22,0,0,1,.21-.15.23.23,0,0,1,.23.23.23.23,0,0,1-.23.23.23.23,0,0,1-.21-.16h.12a.11.11,0,0,0,.09,0,.12.12,0,0,0,.13-.12A.13.13,0,0,0,12.48,60Z"/><path class="cls-2" d="M44,63.11a.18.18,0,0,0-.1,0H37.68l-.29-.27.49-.49h8.66V58.68a.12.12,0,0,0,.07-.11.13.13,0,0,0-.13-.13.13.13,0,0,0-.12.13.14.14,0,0,0,0,.06v3.6H45.19V59.84a.12.12,0,0,0,.05-.1.13.13,0,0,0-.13-.12.12.12,0,0,0-.12.12.12.12,0,0,0,0,.1v2.39H37.82l-.57.58H35.37V56.22H34l-.65.66v4.81H29.21v-5.6a.12.12,0,0,0,.05-.1.12.12,0,0,0-.12-.12A.13.13,0,0,0,29,56a.12.12,0,0,0,0,.1v1.82l-.44-.44V56.09a.12.12,0,0,0,.05-.1.13.13,0,0,0-.13-.12.12.12,0,0,0-.12.12.12.12,0,0,0,0,.1v1.44l.59.6v1.69L28,58.73V56.09A.12.12,0,0,0,28,56a.13.13,0,0,0-.12-.12.13.13,0,0,0-.13.12.12.12,0,0,0,.05.1V58.8L29.06,60v1.8H33.5v-4.9l.57-.57h1.15v6.44H27.33V58l-1-1V55.42H32.6l-.3-4.22h1.3l.43.95V54.2a.11.11,0,0,0-.05.09.13.13,0,0,0,.13.13.12.12,0,0,0,.12-.13.11.11,0,0,0,0-.09V52.14l-.48-1.09H32.29l-.07-1h2.23L35,51.27v3.58a.11.11,0,0,0,0,.09.13.13,0,0,0,.13.13.12.12,0,0,0,.12-.13.11.11,0,0,0-.05-.09V52l.46.38v1.18a.14.14,0,0,0,0,.1.12.12,0,0,0,.13.12.12.12,0,0,0,.12-.12.18.18,0,0,0,0-.1V52.32l-.62-.5v-.57l-.61-1.36H32.21l-.1-1.46h3.06V47a.34.34,0,0,0,.28-.34.36.36,0,0,0-.71,0A.34.34,0,0,0,35,47v1.31H31.94l.49,7H26.19v1.79l1,1v1.55l-.61.61V63a.35.35,0,0,0-.28.34.36.36,0,1,0,.71,0,.35.35,0,0,0-.28-.34V60.26l.46-.46V63H37.25l.37.35h6.29a.13.13,0,0,0,.1,0,.12.12,0,1,0,0-.24ZM34.9,46.63a.2.2,0,0,1,.4,0,.19.19,0,0,1-.13.18v-.09a.11.11,0,0,0,0-.09.12.12,0,0,0-.12-.12.12.12,0,0,0-.13.12.11.11,0,0,0,.05.09v.09A.2.2,0,0,1,34.9,46.63ZM26.84,63.35a.2.2,0,1,1-.4,0,.2.2,0,0,1,.12-.18v.09a.12.12,0,0,0,0,.09.13.13,0,0,0,.13.13.12.12,0,0,0,.12-.13.12.12,0,0,0-.05-.09v-.09A.19.19,0,0,1,26.84,63.35Z"/><circle class="cls-2" cx="12.96" cy="48.68" r="0.12"/><path class="cls-2" d="M12.47,48.68a.13.13,0,0,0-.12-.12.13.13,0,0,0-.13.12.13.13,0,0,0,.13.13A.13.13,0,0,0,12.47,48.68Z"/><path class="cls-2" d="M11.86,48.68a.13.13,0,0,0-.13-.12.12.12,0,0,0-.12.12.12.12,0,0,0,.12.13A.13.13,0,0,0,11.86,48.68Z"/><path class="cls-2" d="M11.12,48.81a.13.13,0,0,0,.13-.13.13.13,0,0,0-.13-.12.12.12,0,0,0-.12.12A.12.12,0,0,0,11.12,48.81Z"/><circle class="cls-2" cx="10.54" cy="48.68" r="0.12"/><path class="cls-2" d="M38.26,29.39a.12.12,0,0,0,.13.12.12.12,0,0,0,.12-.12.1.1,0,0,0,0-.09V20.85L36.8,19.18a.38.38,0,0,0,.07-.22.38.38,0,1,0-.38.39.36.36,0,0,0,.2-.06l1.63,1.63v8.37A.13.13,0,0,0,38.26,29.39ZM36.69,19.07,36.61,19v0a.12.12,0,0,0-.12-.12.13.13,0,0,0-.13.12.13.13,0,0,0,.13.13h0l.09.09h-.09a.23.23,0,1,1,0-.45.23.23,0,0,1,.23.22A.2.2,0,0,1,36.69,19.07Z"/><path class="cls-2" d="M39.43,31.89a.13.13,0,0,0,.13.12.12.12,0,0,0,.12-.12.12.12,0,0,0,0-.1V19.65l-.47-.47a.43.43,0,0,0,.06-.22.38.38,0,0,0-.38-.38.39.39,0,1,0,0,.77.4.4,0,0,0,.21-.07l.43.44V31.79A.12.12,0,0,0,39.43,31.89ZM39,19.06,39,19v0a.12.12,0,0,0-.12-.12.13.13,0,0,0-.13.12.13.13,0,0,0,.13.13h0l.09.08a.18.18,0,0,1-.1,0,.23.23,0,1,1,0-.45.23.23,0,0,1,.23.22A.17.17,0,0,1,39,19.06Z"/><path class="cls-2" d="M38.83,30.61a.13.13,0,0,0,.13.12.12.12,0,0,0,.12-.12.12.12,0,0,0,0-.1V20.24L38,19.18A.43.43,0,0,0,38,19a.39.39,0,1,0-.17.32l1,1v10.2A.12.12,0,0,0,38.83,30.61Zm-1-11.55L37.77,19v0a.12.12,0,0,0-.12-.12.13.13,0,0,0-.13.12.13.13,0,0,0,.13.13h0l.09.08a.18.18,0,0,1-.1,0,.23.23,0,1,1,.23-.23A.3.3,0,0,1,37.86,19.06Z"/><path class="cls-2" d="M24.8,48.3a.12.12,0,0,0-.12.13.12.12,0,0,0,.24,0A.12.12,0,0,0,24.8,48.3Z"/><path class="cls-2" d="M24.8,48.92a.12.12,0,1,0,.12.12A.12.12,0,0,0,24.8,48.92Z"/><path class="cls-2" d="M24.8,49.53a.12.12,0,0,0-.12.12.12.12,0,1,0,.24,0A.12.12,0,0,0,24.8,49.53Z"/><path class="cls-2" d="M24.8,47.69a.12.12,0,0,0-.12.13.12.12,0,0,0,.24,0A.12.12,0,0,0,24.8,47.69Z"/><path class="cls-2" d="M24.8,47.08a.12.12,0,0,0-.12.12.12.12,0,1,0,.24,0A.12.12,0,0,0,24.8,47.08Z"/><path class="cls-2" d="M24.8,46.47a.12.12,0,0,0-.12.12.12.12,0,1,0,.24,0A.12.12,0,0,0,24.8,46.47Z"/><path class="cls-2" d="M24.8,45.88a.12.12,0,0,0-.12.13.12.12,0,0,0,.24,0A.12.12,0,0,0,24.8,45.88Z"/><path class="cls-2" d="M17.25,35.07a.11.11,0,0,0,.09,0,.13.13,0,0,0,.13-.12.13.13,0,0,0-.13-.13.11.11,0,0,0-.09.05H12V33.59a.18.18,0,0,0,.1-.16.17.17,0,0,0-.18-.17.17.17,0,0,0-.17.17.16.16,0,0,0,.09.15v1.49Z"/><path class="cls-2" d="M16.69,31.2a.12.12,0,0,0-.12.13.12.12,0,0,0,.12.12.12.12,0,0,0,.13-.12A.13.13,0,0,0,16.69,31.2Z"/><path class="cls-2" d="M16.69,31.82a.12.12,0,0,0,0,.24.12.12,0,1,0,0-.24Z"/><path class="cls-2" d="M16.69,32.43a.12.12,0,0,0-.12.12.12.12,0,0,0,.12.13.13.13,0,0,0,.13-.13A.12.12,0,0,0,16.69,32.43Z"/><path class="cls-2" d="M16.69,30.59a.12.12,0,0,0-.12.13.12.12,0,0,0,.12.12.12.12,0,0,0,.13-.12A.13.13,0,0,0,16.69,30.59Z"/><path class="cls-2" d="M16.69,30a.12.12,0,0,0-.12.12.12.12,0,0,0,.12.13.13.13,0,0,0,.13-.13A.13.13,0,0,0,16.69,30Z"/><path class="cls-2" d="M16.69,29.37a.12.12,0,0,0-.12.12.12.12,0,0,0,.12.13.13.13,0,0,0,.13-.13A.12.12,0,0,0,16.69,29.37Z"/><path class="cls-2" d="M16.69,28.78a.12.12,0,0,0-.12.13.12.12,0,0,0,.12.12.12.12,0,0,0,.13-.12A.13.13,0,0,0,16.69,28.78Z"/><path class="cls-2" d="M41.65,27.5a.12.12,0,1,0,0-.24.12.12,0,1,0,0,.24Z"/><path class="cls-2" d="M41.65,26.89a.12.12,0,0,0,.13-.12.13.13,0,0,0-.13-.13.12.12,0,0,0-.12.13A.12.12,0,0,0,41.65,26.89Z"/><path class="cls-2" d="M41.65,26.28a.13.13,0,0,0,.13-.12.13.13,0,0,0-.13-.13.12.12,0,0,0-.12.13A.12.12,0,0,0,41.65,26.28Z"/><path class="cls-2" d="M41.65,25.67a.13.13,0,0,0,.13-.13.12.12,0,0,0-.13-.12.12.12,0,0,0-.12.12A.12.12,0,0,0,41.65,25.67Z"/><path class="cls-2" d="M41.65,25.08a.12.12,0,0,0,.13-.12.13.13,0,0,0-.13-.13.12.12,0,0,0-.12.13A.12.12,0,0,0,41.65,25.08Z"/><path class="cls-2" d="M27.76,18.9a.12.12,0,1,0,0,.24.11.11,0,0,0,.09,0h4.22l.66-.66V15.87h-4a.38.38,0,1,0,0,.16h3.84v2.34l-.57.57H31.5l-.64-.63h-.93a.39.39,0,0,0-.38-.32.39.39,0,1,0,.37.47h.88l.48.48H27.85A.15.15,0,0,0,27.76,18.9Zm.61-2.83a.13.13,0,0,0,.09,0h.12a.23.23,0,0,1-.21.15.23.23,0,0,1,0-.46.22.22,0,0,1,.21.15h-.12a.11.11,0,0,0-.09,0,.13.13,0,0,0-.13.13A.12.12,0,0,0,28.37,16.07Zm1.18,2.43a.1.1,0,0,0,.09,0h.13a.23.23,0,0,1-.45-.08.23.23,0,0,1,.23-.23.23.23,0,0,1,.22.16h-.11a.15.15,0,0,0-.11-.06.12.12,0,0,0-.12.13A.12.12,0,0,0,29.55,18.5Z"/><path class="cls-2" d="M20,23.27a.13.13,0,0,0-.1,0,.12.12,0,0,0,0,.17.13.13,0,0,0,.18,0,.15.15,0,0,0,0-.1l2-2,.06.59-.84.84a.12.12,0,1,0,.07.21.09.09,0,0,0,0-.1l.9-.89-.08-.79.4-.4.53-1.4L21.74,18a.34.34,0,0,0,.05-.17.36.36,0,0,0-.71,0,.35.35,0,0,0,.35.35.31.31,0,0,0,.21-.07L23,19.48l-.47,1.26Zm1.44-5.22a.2.2,0,1,1,.2-.2.09.09,0,0,1,0,0l-.07-.07a.12.12,0,0,0-.12-.1.12.12,0,0,0,0,.24h0l.06.05A.17.17,0,0,1,21.43,18.05Z"/><path class="cls-2" d="M48,40.52a.18.18,0,0,0-.17-.18.19.19,0,0,0-.15.08H43.12l-.57-.56v-3a.4.4,0,0,0,.31-.38.39.39,0,0,0-.39-.38.38.38,0,0,0-.38.38.39.39,0,0,0,.31.38v3l.65.66h4.64a.2.2,0,0,0,.09.09v2.71a.2.2,0,0,0-.09.11h-7l-1.18-1.18V39.86l-.66-.66H32.76V37.41l-1.27-1.27H28.41l-1.08-.54a.12.12,0,0,0-.12-.12.13.13,0,0,0-.13.12.13.13,0,0,0,.13.13h0l1.14.57h3l1.18,1.18v1.88h6.17l.57.57v2.45l1.27,1.27h7.11a.17.17,0,0,0,.14.07.17.17,0,0,0,.17-.17.18.18,0,0,0-.1-.16V40.67A.16.16,0,0,0,48,40.52Zm-5.79-4a.24.24,0,0,1,.23-.23.23.23,0,0,1,.23.23.23.23,0,0,1-.23.23A.23.23,0,0,1,42.24,36.52Z"/><path class="cls-2" d="M9.47,35.72v3.56h0v.14H11.6V40h1.65l1.22,1.21h3a.11.11,0,0,0,.09,0,.13.13,0,0,0,.13-.12.13.13,0,0,0-.13-.13.11.11,0,0,0-.09.05H14.54l-1.22-1.22H11.75v-.42h2.12L15,40.57h3.64a.12.12,0,0,0,.1,0,.12.12,0,0,0,.12-.12.12.12,0,0,0-.22-.08H15.08l-1.15-1.15H9.63V35.71a.17.17,0,0,0,.07-.1h1.43l.71.68h1.57a.37.37,0,0,0,.37.35.39.39,0,1,0-.36-.5H11.9l-.55-.53h4l.77.72h1.46a.38.38,0,0,0,.37.31.38.38,0,0,0,0-.76.38.38,0,0,0-.37.3h-1.4l-.61-.57h7.76v7.64a.39.39,0,0,0-.3.38.38.38,0,1,0,.76,0,.39.39,0,0,0-.3-.38V35.62a.13.13,0,0,0,0-.09.12.12,0,0,0-.12-.13.14.14,0,0,0-.1.05H9.67a.17.17,0,0,0-.13-.07.18.18,0,0,0-.18.18A.18.18,0,0,0,9.47,35.72Zm4.12.42a.21.21,0,0,1,.19-.11.23.23,0,1,1-.22.26h.22v-.15Zm4.19,0A.22.22,0,0,1,18,36a.23.23,0,0,1,0,.46.25.25,0,0,1-.22-.16h.3v-.15Zm5.79,7.46a.18.18,0,0,0,0-.1v-.12a.24.24,0,0,1,.15.22.23.23,0,0,1-.46,0,.23.23,0,0,1,.15-.22v.12a.14.14,0,0,0-.05.1.12.12,0,0,0,.13.12A.12.12,0,0,0,23.57,43.64Z"/><path class="cls-2" d="M12.67,32.85a.18.18,0,0,0-.17-.17.18.18,0,0,0-.18.17.17.17,0,0,0,.11.16V34.5h8.49a.13.13,0,0,0,.09,0,.12.12,0,0,0,.13-.12.13.13,0,0,0-.13-.13.11.11,0,0,0-.09.05H12.58V33A.17.17,0,0,0,12.67,32.85Z"/><path class="cls-2" d="M9.47,48.06v2.36h4.46v1H9.47v2.94a.19.19,0,0,0-.09.16.18.18,0,0,0,.17.17.16.16,0,0,0,.17-.13L11.27,54h6.26V47.65a.39.39,0,0,0,.31-.38.38.38,0,0,0-.38-.38.39.39,0,0,0-.39.38.4.4,0,0,0,.31.38v6.24H11.26l-1.57.52-.06,0V51.58h4.45V50.26H9.63v-2.2a.18.18,0,0,0,.1-.16s0,0,0,0l.18-.19,3.87,0a.3.3,0,0,0,.1.19.38.38,0,1,0,0-.54.35.35,0,0,0-.1.19H9.84l-.23.23H9.55a.16.16,0,0,0-.17.17A.19.19,0,0,0,9.47,48.06Zm7.76-.79a.23.23,0,0,1,.23-.23.23.23,0,0,1,.07.45v-.12a.14.14,0,0,0,0-.1.12.12,0,0,0-.12-.12.12.12,0,0,0-.13.12.14.14,0,0,0,.05.1v.12A.23.23,0,0,1,17.23,47.27Zm-3,.24a.13.13,0,0,0-.18,0h-.12a.14.14,0,0,1,.05-.08.23.23,0,1,1,0,.32.24.24,0,0,1-.06-.08h.13a.13.13,0,0,0,.18-.18Z"/><path class="cls-2" d="M9.55,59a.18.18,0,0,0,.16-.1h7a.14.14,0,0,0,.1.05.12.12,0,0,0,.12-.12.12.12,0,0,0-.12-.13.14.14,0,0,0-.1,0h-7a.2.2,0,0,0-.08-.08v-2l.41.4h6.7a.14.14,0,0,0,.1,0A.12.12,0,0,0,17,57a.12.12,0,0,0-.12-.13.14.14,0,0,0-.1,0H13.29l.49-.49h1.67a.11.11,0,0,0,.09,0,.13.13,0,0,0,.13-.13.12.12,0,0,0-.13-.12.11.11,0,0,0-.09.05H13.72l-.65.64H11.45l1.07-1.06H14.3a.15.15,0,0,0,.1,0,.12.12,0,0,0,0-.24.12.12,0,0,0-.1,0H12.68l.4-.38h0a.12.12,0,1,0,0-.24.12.12,0,0,0-.12.12h0l-.52.49h0l-1.22,1.22H10.1l-.47-.47v0l.46-.55h1.08a.18.18,0,0,0,.1,0,.12.12,0,0,0,0-.24.13.13,0,0,0-.1,0H10l-.39.47v-.91l1.59-.54a.2.2,0,0,0,.13.06.18.18,0,0,0,.16-.12h4l1.19,1.2h.6v1.69H10l0,0v.19h7.48v-2h-.69L15.58,54.5H11.5a.18.18,0,0,0-.15-.08.17.17,0,0,0-.17.14l-1.71.58v3.53a.19.19,0,0,0-.09.16A.18.18,0,0,0,9.55,59Z"/><path class="cls-2" d="M34.17,44.25h4.66l.89-.89.89.89h4l1.67.48H48a.36.36,0,0,0,.35.29.36.36,0,0,0,0-.71.37.37,0,0,0-.35.27H46.28l-1.66-.48H40.67l-1.79-1.79v-2.5H28.43l-.33-.32a.38.38,0,0,0,.07-.21.4.4,0,0,0-.39-.39.39.39,0,0,0-.38.39.38.38,0,0,0,.38.38A.37.37,0,0,0,28,39.6l.37.37H38.72v2.4l.38.38-.84.84h-5a.16.16,0,0,0-.14-.08.18.18,0,0,0-.18.17.17.17,0,0,0,.14.17,4.54,4.54,0,0,1,.07.75,3.74,3.74,0,0,1-2,3.28l0,0,.46,6.59H27.17l.47-6.59-.05,0a3.74,3.74,0,0,1-2-3.28,3.79,3.79,0,0,1,1.57-3.06h0l.05,0v-4.7l-.61-1.22V34.46H39.38l.61.61h8.49V34.4a2,2,0,0,0-.32-1.1.32.32,0,0,0,.09-.23.34.34,0,0,0-.35-.35.36.36,0,0,0-.35.31H40.06l-.2-.19.79-.27H45.1a.1.1,0,0,0,.1.06.12.12,0,0,0,.12-.12.12.12,0,0,0-.12-.13.13.13,0,0,0-.09,0H40.64l-.9.3-.3-.3H37.06a.12.12,0,0,0-.1-.05.12.12,0,0,0-.09.05H35.22a.11.11,0,0,0-.09-.05.14.14,0,0,0-.1.05H24.7l-1.84,1.22H13.17V32.49H13V33.8h9.89l1.84-1.23h.51V33h-.61v9.29a.12.12,0,0,0,0,.09.13.13,0,0,0,.12.13.13.13,0,0,0,.13-.13.12.12,0,0,0-.05-.09V33.19h.46v6.89a.39.39,0,0,0-.31.37.4.4,0,0,0,.39.39.39.39,0,0,0,.38-.39.38.38,0,0,0-.31-.37V33.19H38.8l.9-.3.29.3h.4a.38.38,0,0,0,.25.67.38.38,0,0,0,.38-.38.36.36,0,0,0-.14-.29h.43a.39.39,0,0,0-.14.29.39.39,0,0,0,.77,0,.39.39,0,0,0-.14-.29h.43a.39.39,0,0,0-.14.29.38.38,0,0,0,.38.38.38.38,0,0,0,.25-.67h.43a.36.36,0,0,0-.14.29.38.38,0,1,0,.63-.29h.42a.38.38,0,1,0,.63.29.36.36,0,0,0-.14-.29H45a.38.38,0,0,0,.25.67.38.38,0,0,0,.38-.38.36.36,0,0,0-.14-.29h2.1a.36.36,0,0,0,.33.23.32.32,0,0,0,.14,0,1.89,1.89,0,0,1,.29,1v.52H40.06l-.62-.62h-13v1.32l.62,1.23v4.58A3.89,3.89,0,0,0,27.48,48L27,54.66h4.77L31.31,48a3.89,3.89,0,0,0,2-3.39,4,4,0,0,0-.07-.78.22.22,0,0,0,.05-.08h5l.88-.88.4.4-.84.84H34.08a.14.14,0,0,0-.09,0,.18.18,0,0,0-.17.17.16.16,0,0,0,.09.15c0,.07,0,.14,0,.21a5.07,5.07,0,0,1-.12,1,.16.16,0,0,0-.15.17.18.18,0,0,0,.18.17.15.15,0,0,0,.15-.1H37.4l-.71.72V48a.38.38,0,0,0-.31.37.38.38,0,0,0,.38.38.38.38,0,0,0,.08-.75V46.64L38,45.47H48.3v4.14l-1.13,1.14H39.74v9.14a.16.16,0,0,0-.1.15.17.17,0,0,0,.17.18A.18.18,0,0,0,40,60a.16.16,0,0,0-.1-.15v-9h7.34l1.07-1.07v1.74l-1,1.15H41.67l-1.4,1.19v6a.18.18,0,0,0-.1.15.18.18,0,0,0,.18.18.18.18,0,0,0,.07-.34V54l1.31-1.11h.94l-.43.44a.12.12,0,0,0-.1.11.13.13,0,0,0,.12.13.13.13,0,0,0,.13-.13.06.06,0,0,0,0,0l.51-.51h1.63l-.39.4h0a.12.12,0,0,0,0,.24.12.12,0,0,0,.13-.12h0l.51-.51h1.63l-.39.39h0a.12.12,0,0,0-.12.12.12.12,0,0,0,.12.13.13.13,0,0,0,.13-.13h0l.49-.5h.74l1-1.08v1.53l-1.12,1.13h-5l-.71.7v5.66a.4.4,0,0,0-.31.38.39.39,0,0,0,.39.38.38.38,0,0,0,.38-.38.39.39,0,0,0-.3-.38V56.74l.47.95v1.39a.39.39,0,0,0-.31.38.39.39,0,0,0,.77,0,.39.39,0,0,0-.31-.38V57.66l-.62-1.26v-.92l1.17,2.18v1.11a.11.11,0,0,0-.05.09.13.13,0,0,0,.13.13.12.12,0,0,0,.12-.13.11.11,0,0,0,0-.09V57.62L41.7,55.2l.59-.6h5l1.06-1.06v1l-1,1.18h-3.8v1.53a.39.39,0,0,0-.31.38.38.38,0,0,0,.38.38.39.39,0,0,0,.39-.38.4.4,0,0,0-.31-.38V55.88h3.72l1-1.1v3.9l-.46-.46V58a.38.38,0,0,0,.31-.37.38.38,0,1,0-.46.37v.27l.61.61v1.6h0v0L47.84,60v-.15a.38.38,0,1,0-.15,0V60l.61.74v.15a1.91,1.91,0,0,1-1.63,1.89.36.36,0,0,0-.34-.24.35.35,0,0,0-.35.35.35.35,0,0,0,.7,0,2.08,2.08,0,0,0,1.77-2v-.09h0V45.32H37.94l-.38.39H34a.1.1,0,0,0,0-.05,4.8,4.8,0,0,0,.13-1.06c0-.07,0-.13,0-.2A.18.18,0,0,0,34.17,44.25Zm14.17.21a.2.2,0,0,1,0,.4.2.2,0,0,1-.19-.13h.09a.12.12,0,0,0,.1.06.13.13,0,0,0,.12-.13.12.12,0,0,0-.12-.12.15.15,0,0,0-.1,0h-.09A.2.2,0,0,1,48.34,44.46ZM28,39.38l-.08-.09h0a.13.13,0,0,0-.13-.13.13.13,0,0,0-.12.13.12.12,0,0,0,.12.12h0l.08.08a.17.17,0,0,1-.1,0,.24.24,0,0,1-.23-.23.23.23,0,0,1,.23-.23.23.23,0,0,1,.23.23A.36.36,0,0,1,28,39.38Zm-2.42,1.07a.23.23,0,0,1-.23.23.23.23,0,0,1-.23-.23.22.22,0,0,1,.15-.21v.12a.11.11,0,0,0-.05.09.13.13,0,0,0,.13.13.13.13,0,0,0,.12-.13.11.11,0,0,0-.05-.09v-.12A.23.23,0,0,1,25.57,40.45ZM25.41,33v-.46H35a.14.14,0,0,0,.1,0h0l.42.41Zm10.36,0-.46-.46h1.56a.12.12,0,0,0,.09,0h0l.41.41Zm3,0H37.61l-.46-.46h2.23l.2.2Zm1.85.68a.23.23,0,0,1-.23-.23.23.23,0,0,1,.23-.23.23.23,0,0,1,.23.23A.24.24,0,0,1,40.64,33.71Zm.91,0a.23.23,0,0,1-.22-.23.23.23,0,1,1,.45,0A.23.23,0,0,1,41.55,33.71Zm.92,0a.24.24,0,0,1-.23-.23.23.23,0,0,1,.23-.23.23.23,0,0,1,.23.23A.23.23,0,0,1,42.47,33.71Zm.92,0a.23.23,0,0,1-.23-.23.23.23,0,1,1,.46,0A.23.23,0,0,1,43.39,33.71Zm.92,0a.23.23,0,0,1-.23-.23.23.23,0,1,1,.46,0A.23.23,0,0,1,44.31,33.71Zm.92,0a.23.23,0,0,1-.23-.23.23.23,0,0,1,.23-.23.23.23,0,0,1,.23.23A.24.24,0,0,1,45.23,33.71Zm2.67-.84a.2.2,0,0,1,.2.2.17.17,0,0,1,0,.1l0-.07v0A.12.12,0,0,0,47.9,33a.12.12,0,0,0-.12.08h-.07A.19.19,0,0,1,47.9,32.87Zm0,.4a.19.19,0,0,1-.16-.08h.16l.05.07ZM37,48.37a.23.23,0,0,1-.23.23.23.23,0,0,1-.23-.23.23.23,0,0,1,.16-.21v.12a.11.11,0,0,0,0,.09.12.12,0,0,0,.12.13.13.13,0,0,0,.13-.13.11.11,0,0,0,0-.09v-.12A.22.22,0,0,1,37,48.37Zm4.84,12.82a.24.24,0,0,1-.23.23.23.23,0,0,1-.23-.23.23.23,0,0,1,.15-.22v.22h.16V61A.26.26,0,0,1,41.83,61.19Zm.47-1.83v-.12a.23.23,0,0,1-.07.45.23.23,0,0,1-.23-.23.23.23,0,0,1,.15-.22v.12a.12.12,0,0,0,0,.1.13.13,0,0,0,.13.12.13.13,0,0,0,.12-.12A.12.12,0,0,0,42.3,59.36Zm1.45-1.72a.23.23,0,0,1-.23.23.23.23,0,0,1-.23-.23.24.24,0,0,1,.16-.22v.12a.14.14,0,0,0-.05.1.12.12,0,0,0,.12.12.12.12,0,0,0,.13-.12.14.14,0,0,0,0-.1v-.12A.23.23,0,0,1,43.75,57.64Zm3.94.09v.12a.22.22,0,0,1-.15-.21.23.23,0,0,1,.23-.23.23.23,0,0,1,.23.23.23.23,0,0,1-.16.21v-.12a.11.11,0,0,0,0-.09.12.12,0,0,0-.12-.13.13.13,0,0,0-.13.13A.11.11,0,0,0,47.69,57.73Zm0,1.82v.12a.22.22,0,0,1-.15-.21.23.23,0,0,1,.23-.23.23.23,0,0,1,.23.23.23.23,0,0,1-.16.21v-.12a.12.12,0,0,0,0-.09.12.12,0,0,0-.12-.13.13.13,0,0,0-.13.13A.12.12,0,0,0,47.69,59.55Zm-1.36,3.58a.2.2,0,1,1,0-.4.21.21,0,0,1,.18.11h-.09a.1.1,0,0,0-.09,0,.12.12,0,0,0-.12.12.12.12,0,0,0,.12.13.12.12,0,0,0,.1-.06h.09A.2.2,0,0,1,46.33,63.13Z"/><path class="cls-2" d="M22.13,16.18a.16.16,0,0,0,.15-.09h1.9a.11.11,0,0,0,.09,0h0l.56.92h3v.48L26.44,18a.4.4,0,0,0-.33-.19.38.38,0,1,0,.38.38v-.05L28,17.64v-.59h.78a.38.38,0,0,0,.37.31.39.39,0,0,0,0-.77.38.38,0,0,0-.37.31H24.92L24.4,16h0a.12.12,0,0,0-.13-.12.15.15,0,0,0-.09,0H22.34a11.2,11.2,0,0,1,6-1.78h1.9a10.9,10.9,0,0,1,3.4.55.16.16,0,0,0,.07.09v3.8L32.59,19.7l.11.05a7.14,7.14,0,0,1,1.14.65h0a9.8,9.8,0,0,1,3.75,8v2.79a.35.35,0,0,0-.27.35.35.35,0,0,0,.35.35.35.35,0,0,0,.35-.35.37.37,0,0,0-.27-.35V28.44a11.27,11.27,0,0,0-.65-3.8l.29-.3V21.66a.35.35,0,0,0,.19-.1.38.38,0,1,0-.54,0,.35.35,0,0,0,.2.1v2.62l-.2.2a9,9,0,0,0-2.94-4.07h1.22a.11.11,0,0,0,.09.05.13.13,0,0,0,.13-.13.11.11,0,0,0,0-.09V17.9l.44-.87H36a.38.38,0,1,0,0-.76.39.39,0,0,0-.39.38.38.38,0,0,0,.15.3l-.45.91v2.37H33.9a7.19,7.19,0,0,0-1-.6l1-1V14.82a.18.18,0,0,0,.12-.17.17.17,0,0,0-.17-.17.17.17,0,0,0-.14.07A11.09,11.09,0,0,0,30.24,14h-1.9a11.3,11.3,0,0,0-6.15,1.85h-.06a.17.17,0,0,0,0,.34Zm4,2.25a.23.23,0,1,1,0-.46.24.24,0,0,1,.18.09l-.11,0a.08.08,0,0,0-.07,0,.12.12,0,1,0,0,.24.13.13,0,0,0,.12-.08l.11,0A.23.23,0,0,1,26.11,18.43Zm3.06-1.68a.23.23,0,0,1,.23.23.23.23,0,0,1-.46,0A.23.23,0,0,1,29.17,16.75Zm8.71,14.83a.2.2,0,1,1-.28-.19v.09a.12.12,0,0,0-.05.1.13.13,0,0,0,.13.12.12.12,0,0,0,.12-.12.15.15,0,0,0,0-.1v-.09A.2.2,0,0,1,37.88,31.58Zm-.63-10.2h0v.12l-.09-.06a.22.22,0,0,1,0-.32.24.24,0,0,1,.33,0,.22.22,0,0,1,0,.32.2.2,0,0,1-.09.05v-.12h0a.13.13,0,0,0,0-.18.11.11,0,0,0-.17,0A.13.13,0,0,0,37.25,21.38ZM36,16.43a.23.23,0,1,1,0,.46h0l.05-.11a.12.12,0,0,0,.1-.12.12.12,0,0,0-.12-.13.13.13,0,0,0-.13.13.43.43,0,0,0,0,.05l-.05.11a.23.23,0,0,1,.17-.39Z"/><path class="cls-2" d="M35.17,15.42a.21.21,0,0,0,.11,0,13.63,13.63,0,0,1,6.58,8H40.38v6.47a.38.38,0,0,0-.31.37.39.39,0,1,0,.77,0,.38.38,0,0,0-.31-.37V23.53h1.38a16.22,16.22,0,0,1,.76,4.91v3h-1v-2a.38.38,0,0,0,.3-.37.38.38,0,1,0-.76,0,.38.38,0,0,0,.3.37v2.19h1.27v-3.2c0-5.72-2.92-10.87-7.47-13.19h0a.18.18,0,0,0-.18-.17.18.18,0,0,0-.17.17A.18.18,0,0,0,35.17,15.42Zm5.41,14.8a.11.11,0,0,0,0-.09V30a.23.23,0,0,1,.16.21.23.23,0,0,1-.23.23.23.23,0,0,1-.23-.23.22.22,0,0,1,.15-.21v.12a.11.11,0,0,0-.05.09.13.13,0,0,0,.13.13A.13.13,0,0,0,40.58,30.22Zm1-1v.12a.23.23,0,0,1-.15-.21.23.23,0,1,1,.46,0,.22.22,0,0,1-.15.21v-.12a.11.11,0,0,0,0-.09.13.13,0,0,0-.13-.13.12.12,0,0,0-.12.13A.13.13,0,0,0,41.55,29.17Z"/><path class="cls-2" d="M16.15,25.55a.17.17,0,0,0,.16-.1h.54l4.73-4.74a.11.11,0,0,0,.11,0,.13.13,0,1,0-.18-.18.1.1,0,0,0,0,.1L19,23v-.7l1.18-1.18a.09.09,0,0,0,.1,0,.13.13,0,0,0,0-.18.12.12,0,0,0-.17,0,.14.14,0,0,0,0,.1l-1.22,1.23v.91l-1.14,1.14v-1.5L19,21.57a.14.14,0,0,0,.1,0,.11.11,0,0,0,0-.17.13.13,0,0,0-.18,0,.1.1,0,0,0,0,.1l-1.15,1.15,0-.56h0a.13.13,0,0,0,0-.18.14.14,0,0,0-.17,0,.13.13,0,0,0,0,.18h0l0,.71h0v1.73l-.8.8H16.3a.13.13,0,0,0-.07-.06,14.62,14.62,0,0,1,4.6-8.16l.07,0a.19.19,0,0,0,.17-.11h2.72l.93,1.62v1.51a.16.16,0,0,0-.13.16s0,0,0,.05a8.65,8.65,0,0,0-2.75,3.4l-2,2-.42-.41a.31.31,0,0,0,.07-.21.36.36,0,0,0-.71,0,.36.36,0,0,0,.36.36.34.34,0,0,0,.17-.05l.42.41-1.83,1.8v.88a.39.39,0,0,0-.3.38.38.38,0,0,0,.76,0,.39.39,0,0,0-.3-.38v-.81l3.61-3.58a10.41,10.41,0,0,0-.51,1.55l-2.65,2.57v1.54a.38.38,0,1,0,.16,0V28.29l2.42-2.36a11.82,11.82,0,0,0-.2,1.19l-1.8,1.72V31a.38.38,0,0,0-.31.37.39.39,0,1,0,.77,0,.38.38,0,0,0-.31-.37V28.9l1.63-1.54c0,.35-.05.71-.05,1.08V29l-1,1h0a.13.13,0,0,0-.12.12.13.13,0,0,0,.12.13.13.13,0,0,0,.13-.13h0l.86-.86V30.3l-.32.31h0a.12.12,0,0,0-.13.12.13.13,0,0,0,.13.13.12.12,0,0,0,.12-.13h0l.21-.21V32a.34.34,0,0,0-.28.34.36.36,0,1,0,.71,0A.34.34,0,0,0,21,32V28.44a9.83,9.83,0,0,1,3.72-8l.07,0a.18.18,0,0,0,.17-.18.21.21,0,0,0-.07-.14V18.56l-1-1.74H21.05a.16.16,0,0,0-.15-.08.18.18,0,0,0-.17.18,0,0,0,0,0,0,0,14.7,14.7,0,0,0-4.66,8.27.18.18,0,0,0-.1.16A.16.16,0,0,0,16.15,25.55Zm3-.26a.2.2,0,1,1,.2-.2.17.17,0,0,1,0,.1l-.06-.06s0,0,0,0a.12.12,0,0,0-.12-.12.12.12,0,0,0-.13.12.11.11,0,0,0,.11.12l.07.07Zm-.93,3.58a.23.23,0,0,1-.46,0,.23.23,0,0,1,.15-.22v.12a.14.14,0,0,0-.05.1A.12.12,0,0,0,18,29a.12.12,0,0,0,.12-.12.18.18,0,0,0,0-.1v-.12A.24.24,0,0,1,18.22,28.87Zm.61,1.26a.23.23,0,0,1-.46,0,.23.23,0,0,1,.15-.21V30a.18.18,0,0,0,0,.1.12.12,0,0,0,.12.12.12.12,0,0,0,.13-.12.14.14,0,0,0-.05-.1v-.11A.22.22,0,0,1,18.83,30.13Zm.57,1.26a.23.23,0,1,1-.45,0,.22.22,0,0,1,.15-.21v.12a.11.11,0,0,0-.05.09.13.13,0,0,0,.12.13.13.13,0,0,0,.13-.13.11.11,0,0,0-.05-.09v-.12A.22.22,0,0,1,19.4,31.39Zm1.7,1a.2.2,0,1,1-.4,0,.19.19,0,0,1,.13-.18v.09a.11.11,0,0,0,0,.09.13.13,0,0,0,.12.13.13.13,0,0,0,.13-.13.11.11,0,0,0-.05-.09v-.09A.2.2,0,0,1,21.1,32.36Z"/><rect x="53.65" y="45.04" width="46.14" height="16.78"/><text class="cls-3" transform="translate(54.96 38.47)">Byte <tspan class="cls-4"><tspan x="0" y="20.13">Shield</tspan></tspan></text></g></svg>