<svg id="Layer_1" data-name="Layer 1" xmlns="http://www.w3.org/2000/svg" viewBox="0 0 563.74 710.64"><defs><style>.cls-1{fill:#070000;}</style></defs><path class="cls-1" d="M733.92,456.88a43.74,43.74,0,1,0-58.19,41.25l-7.25,91.17h42.61l-6.59-91.12A43.73,43.73,0,0,0,733.92,456.88Z" transform="translate(-402.32 -19)"/><path class="cls-1" d="M429.63,318.77a2.48,2.48,0,0,0-1.32,2.16,2.5,2.5,0,1,0,3.51-2.28v-9.1H407.65A27.38,27.38,0,0,1,435,283.28h62.52v-57.9c0-1.12,0-2.22,0-3.33a2.47,2.47,0,0,0,1.9-2.38,2.44,2.44,0,0,0-.29-1.11L526.68,191a1.77,1.77,0,1,0-1.85-1.76,2.26,2.26,0,0,0,.08.44l-27.55,27.55a3.25,3.25,0,0,0-.43-.08,2.47,2.47,0,0,0-1.59,4.39c0,1.27,0,2.54,0,3.82V281.1H435a29.57,29.57,0,0,0-29.53,29.54v1.1h24.19Z" transform="translate(-402.32 -19)"/><path class="cls-1" d="M721.47,354.12a1.77,1.77,0,0,0-1.77-1.77,1.75,1.75,0,0,0-1.37.68H685l-12.5-6.25a5.46,5.46,0,1,0-5.26,4.06,5.4,5.4,0,0,0,4.27-2.11l13,6.49h33.89a1.72,1.72,0,0,0,.27.27V379a1.74,1.74,0,0,0-.68,1.36,1.78,1.78,0,1,0,3.55,0,1.71,1.71,0,0,0-.68-1.36V355.49A1.72,1.72,0,0,0,721.47,354.12Zm-51-8.35L668.9,345a1.76,1.76,0,0,0-1.7-1.4,1.78,1.78,0,1,0,0,3.55A1.73,1.73,0,0,0,668,347l1.52.76a3.26,3.26,0,0,1-2.27.92,3.28,3.28,0,1,1,3.28-3.28C670.48,345.51,670.45,345.64,670.44,345.77Z" transform="translate(-402.32 -19)"/><path class="cls-1" d="M949,298.14a1.78,1.78,0,1,0-1.77,1.78A1.78,1.78,0,0,0,949,298.14Z" transform="translate(-402.32 -19)"/><path class="cls-1" d="M940.22,298.14a1.78,1.78,0,1,0-1.78,1.78A1.78,1.78,0,0,0,940.22,298.14Z" transform="translate(-402.32 -19)"/><path class="cls-1" d="M931.87,298.14a1.78,1.78,0,1,0-1.78,1.78A1.78,1.78,0,0,0,931.87,298.14Z" transform="translate(-402.32 -19)"/><path class="cls-1" d="M789,528.56V705.35h9.86l17.93-17.66V522.56H927.35a1.71,1.71,0,0,0,1.36.68,1.78,1.78,0,1,0,0-3.55,1.74,1.74,0,0,0-1.36.68H814.65V686.78L798,703.17h-6.77V529.46l16.19-16.2H945.83a1.73,1.73,0,0,0,1.37.69,1.78,1.78,0,0,0,0-3.56,1.75,1.75,0,0,0-1.37.68H806.51Z" transform="translate(-402.32 -19)"/><rect class="cls-1" x="546.74" y="466.47" width="2.17" height="7.13"/><rect class="cls-1" x="534.06" y="466.47" width="2.18" height="7.13"/><rect class="cls-1" x="521.38" y="466.47" width="2.18" height="7.13"/><rect class="cls-1" x="508.69" y="466.47" width="2.17" height="7.13"/><rect class="cls-1" x="496.01" y="466.47" width="2.18" height="7.13"/><rect class="cls-1" x="483.33" y="466.47" width="2.18" height="7.13"/><rect class="cls-1" x="470.64" y="466.47" width="2.18" height="7.13"/><rect class="cls-1" x="457.96" y="466.47" width="2.17" height="7.13"/><rect class="cls-1" x="445.28" y="466.47" width="2.18" height="7.13"/><rect class="cls-1" x="432.59" y="466.47" width="2.18" height="7.13"/><rect class="cls-1" x="419.91" y="466.47" width="2.17" height="7.13"/><rect class="cls-1" x="407.23" y="466.47" width="2.18" height="7.13"/><path class="cls-1" d="M441.07,344.28a1.75,1.75,0,0,0-1.37-.68,1.78,1.78,0,1,0,1.37,2.87H587.35v85a1.71,1.71,0,0,0-.68,1.36,1.78,1.78,0,1,0,3.55,0,1.71,1.71,0,0,0-.68-1.36V344.28Z" transform="translate(-402.32 -19)"/><path class="cls-1" d="M697.07,33.8a5.47,5.47,0,1,0-5.47,5.47A5.47,5.47,0,0,0,697.07,33.8Zm-8.75,0a3.28,3.28,0,1,1,3.28,3.28A3.28,3.28,0,0,1,688.32,33.8Z" transform="translate(-402.32 -19)"/><path class="cls-1" d="M736.45,33.8A5.47,5.47,0,1,0,731,39.27,5.48,5.48,0,0,0,736.45,33.8Zm-8.76,0A3.29,3.29,0,1,1,731,37.08,3.29,3.29,0,0,1,727.69,33.8Z" transform="translate(-402.32 -19)"/><path class="cls-1" d="M710.19,33.8a5.47,5.47,0,1,0-5.46,5.47A5.47,5.47,0,0,0,710.19,33.8Zm-8.75,0a3.29,3.29,0,1,1,3.29,3.28A3.29,3.29,0,0,1,701.44,33.8Z" transform="translate(-402.32 -19)"/><path class="cls-1" d="M723.32,33.8a5.47,5.47,0,1,0-5.47,5.47A5.47,5.47,0,0,0,723.32,33.8Zm-8.75,0a3.28,3.28,0,1,1,3.28,3.28A3.28,3.28,0,0,1,714.57,33.8Z" transform="translate(-402.32 -19)"/><path class="cls-1" d="M802.82,615.52a5.47,5.47,0,1,0,5.47,5.48A5.48,5.48,0,0,0,802.82,615.52Zm0,8.76A3.28,3.28,0,1,1,806.1,621,3.29,3.29,0,0,1,802.82,624.28Z" transform="translate(-402.32 -19)"/><path class="cls-1" d="M802.82,654.9a5.47,5.47,0,1,0,5.47,5.47A5.48,5.48,0,0,0,802.82,654.9Zm0,8.75a3.28,3.28,0,1,1,3.28-3.28A3.28,3.28,0,0,1,802.82,663.65Z" transform="translate(-402.32 -19)"/><path class="cls-1" d="M802.82,628.65a5.47,5.47,0,1,0,5.47,5.47A5.47,5.47,0,0,0,802.82,628.65Zm0,8.75a3.28,3.28,0,1,1,3.28-3.28A3.28,3.28,0,0,1,802.82,637.4Z" transform="translate(-402.32 -19)"/><path class="cls-1" d="M802.82,641.77a5.48,5.48,0,1,0,5.47,5.48A5.48,5.48,0,0,0,802.82,641.77Zm0,8.76a3.29,3.29,0,1,1,3.28-3.28A3.29,3.29,0,0,1,802.82,650.53Z" transform="translate(-402.32 -19)"/><path class="cls-1" d="M731,694.81l9.42-9.42V625.05a1.71,1.71,0,0,0,.69-1.36,1.78,1.78,0,1,0-3.56,0,1.74,1.74,0,0,0,.69,1.36v49l-6.87-6.87V654.7a5.48,5.48,0,1,0-2.19.06v13.37l9.06,9v7.3l-8.14,8.14H696.53V637.81a5.47,5.47,0,1,0-2.19,0v57Zm-1.82-43.94v1.65a3.25,3.25,0,1,1,2.19-.1v-1.77a1.79,1.79,0,1,0-2.19.22Zm-37-18.42a3.28,3.28,0,1,1,4.37,3.08v-1.72a1.72,1.72,0,0,0,.69-1.36,1.78,1.78,0,1,0-3.56,0,1.71,1.71,0,0,0,.68,1.36v1.72A3.27,3.27,0,0,1,692.16,632.45Z" transform="translate(-402.32 -19)"/><path class="cls-1" d="M709.55,649.39a5.47,5.47,0,1,0-6.56,5.35L703,686h17.49a1.78,1.78,0,1,0,0-2.19h-15.3l0-29.09A5.48,5.48,0,0,0,709.55,649.39Zm-5.46-1.78a1.77,1.77,0,0,0-1.78,1.78,1.75,1.75,0,0,0,.68,1.37v1.7a3.29,3.29,0,1,1,2.19,0v-1.7a1.75,1.75,0,0,0,.68-1.37A1.77,1.77,0,0,0,704.09,647.61Z" transform="translate(-402.32 -19)"/><path class="cls-1" d="M448.27,355.9a1.74,1.74,0,0,0,1.36-.68h129v91.42a5.47,5.47,0,1,0,2.19,0V353H449.63a1.71,1.71,0,0,0-1.36-.68,1.78,1.78,0,1,0,0,3.55Zm132.52,94.73v-1.72a3.28,3.28,0,1,1-2.19,0v1.72a1.72,1.72,0,0,0-.68,1.37,1.78,1.78,0,0,0,3.55,0A1.72,1.72,0,0,0,580.79,450.63Z" transform="translate(-402.32 -19)"/><path class="cls-1" d="M424.39,529.67a1.77,1.77,0,0,0,1.77,1.77,1.72,1.72,0,0,0,1.37-.68h59.88v12.78a5.48,5.48,0,1,0,2.19,0v-15H427.53a1.75,1.75,0,0,0-1.37-.68A1.78,1.78,0,0,0,424.39,529.67Zm64.12,21a1.78,1.78,0,0,0,1.77-1.78,1.75,1.75,0,0,0-.81-1.46h.13v-1.62a3.29,3.29,0,1,1-2.19,0v1.62h.14a1.74,1.74,0,0,0-.82,1.46A1.78,1.78,0,0,0,488.51,550.68Z" transform="translate(-402.32 -19)"/><path class="cls-1" d="M957,346.47l0-1.55-.61-.64-17.5-17.5H850.49l-5.29,5.28a5.42,5.42,0,0,0-3-.91,5.48,5.48,0,0,0-5.35,4.38H817.36a1.76,1.76,0,0,0-1.37-.69,1.89,1.89,0,0,0-.23.05l-8.11-8.11H676.21l-12.49-6.24a5.81,5.81,0,0,0,.19-1.38,5.51,5.51,0,1,0-1.16,3.33L675.69,329h131l7.5,7.5s0,.1,0,.15a1.76,1.76,0,0,0,3.15,1.1h19.48a5.47,5.47,0,0,0,10.83-1.1,5.4,5.4,0,0,0-.92-3L851.4,329h49.4L894.74,335a5.44,5.44,0,1,0,1.61,1.47L903.9,329h23.15l-6.11,6.11a5.42,5.42,0,0,0-2.9-.85,5.47,5.47,0,1,0,5.47,5.47,5.4,5.4,0,0,0-1-3.11l7.63-7.62H938l7.66,7.65-12.81,12.81a5.37,5.37,0,0,0-2.75-.78,5.47,5.47,0,1,0,5.47,5.47,5.37,5.37,0,0,0-1.09-3.23l12.73-12.72,7.65,7.66V388H895.68a5.47,5.47,0,1,0,0,2.19H957Zm-298.59-24a3.29,3.29,0,1,1,3.28-3.28A3.29,3.29,0,0,1,658.45,322.44Zm183.74,10.9a3.29,3.29,0,0,1,1.41.33l-1.21,1.21c-.07,0-.13,0-.2,0a1.74,1.74,0,0,0-1.36.69h-1.72A3.29,3.29,0,0,1,842.19,333.34Zm0,6.56a3.28,3.28,0,0,1-3.08-2.18h1.72a1.76,1.76,0,0,0,1.36.68,1.78,1.78,0,0,0,1.78-1.78c0-.07,0-.12,0-.19l1.21-1.21a3.14,3.14,0,0,1,.33,1.4A3.28,3.28,0,0,1,842.19,339.9ZM891.92,343a3.28,3.28,0,1,1,3.28-3.28A3.29,3.29,0,0,1,891.92,343ZM918,343a3.28,3.28,0,1,1,3.28-3.28A3.28,3.28,0,0,1,918,343Zm12.05,14.42a3.28,3.28,0,0,1,0-6.56,3.11,3.11,0,0,1,1.13.22l-1.34,1.33a1.75,1.75,0,0,0-1.57,1.73,1.78,1.78,0,1,0,3.56,0,1.86,1.86,0,0,0-.11-.52l1.14-1.14a3.26,3.26,0,0,1-2.81,4.94Zm-39.77,35a3.28,3.28,0,1,1,3.28-3.28A3.29,3.29,0,0,1,890.32,392.4Z" transform="translate(-402.32 -19)"/><path class="cls-1" d="M623.35,455.37a2.47,2.47,0,0,0-1.55,1.74h-9a2.46,2.46,0,0,0-2.1-1.22,2.49,2.49,0,0,0-1,4.77v72.08l17.5,17.49v51.6l-8.75,8.75v26.81l0,0,0,0v71.08H603V681.33l9.15-9.14V603.07l8.53-8.53V558.1l-5.38-5.38a5.42,5.42,0,1,0-1.52,1.58l4.71,4.71v34.63l-8.53,8.53v69.11l-9.15,9.15v30.31H620.6V639.66l15.28,15.27v23.24a1.76,1.76,0,0,0-.75,1.4,1.78,1.78,0,1,0,3.56,0,1.73,1.73,0,0,0-.63-1.32V654L620.6,636.57V611.49l8.76-8.75V549.33l-17.5-17.5V460.56A2.46,2.46,0,0,0,613,459.3h9.29a2.47,2.47,0,1,0,3.24-3.64A64.28,64.28,0,0,1,648.6,407v0l2.19-1.7v-61h-8.48a1.73,1.73,0,0,0-1.36-.68,1.78,1.78,0,1,0,1.36,2.87h6.29v57.64A66.45,66.45,0,0,0,623.35,455.37Zm-9.71,95.74-1.24-1.23a.38.38,0,0,0,0-.1,1.78,1.78,0,1,0-1.78,1.78,1.5,1.5,0,0,0,.29-.06l1.19,1.2a3.38,3.38,0,0,1-1.48.37,3.32,3.32,0,1,1,3-2Z" transform="translate(-402.32 -19)"/><path class="cls-1" d="M737.2,399.8a1.76,1.76,0,0,0-1.37.68H692.36v7.08a5.08,5.08,0,0,0-3.94,3.95,44.85,44.85,0,0,0-14.17,86.8l-6.39,91h44.7l-6.39-91a44.85,44.85,0,0,0,17-72.53,4.93,4.93,0,0,0,.65-2.41,5.06,5.06,0,1,0-5.06,5.06,5,5,0,0,0,3-1,42.67,42.67,0,0,1-17,69.1l-.78.28,6.34,90.29h-40l6.34-90.29-.79-.28a42.67,42.67,0,0,1,12.71-82.84,5.05,5.05,0,1,0,6.07-6.1v-4.93h41.29a1.73,1.73,0,0,0,1.37.68,1.29,1.29,0,0,0,.19,0l8.11,13.15h43.1v6.88l-20.44,6.81a5.43,5.43,0,1,0,.75,2.72c0-.22,0-.43-.06-.64l21.94-7.32v-8.45h11.05a5.47,5.47,0,1,0,0-2.18H746.4l-7.47-12.51a1.62,1.62,0,0,0,0-.19A1.77,1.77,0,0,0,737.2,399.8Zm-21.36,23.57a2.88,2.88,0,0,1,5.75,0,2.72,2.72,0,0,1-.14.7c-.33-.33-.66-.64-1-.95a1.75,1.75,0,0,0-1.72-1.53,1.78,1.78,0,0,0,0,3.56,1.81,1.81,0,0,0,.58-.12c.28.26.55.53.81.8a2.79,2.79,0,0,1-1.39.41A2.88,2.88,0,0,1,715.84,423.37Zm-23.48-13.52v1.25a1.57,1.57,0,0,0-.39.38c-.41,0-.83,0-1.24,0A2.86,2.86,0,0,1,692.36,409.85Zm3.89,2.66a2.87,2.87,0,0,1-5.52,1.12c.45,0,.88,0,1.33,0a1.73,1.73,0,0,0,1.32.62,1.76,1.76,0,0,0,1.16-3.1V409.9A2.88,2.88,0,0,1,696.25,412.51Zm67.19,23.64a3.28,3.28,0,0,1,0-6.56,3.23,3.23,0,0,1,2.58,1.28l-1.63.53a1.81,1.81,0,0,0-.95-.3,1.78,1.78,0,0,0,0,3.55,1.75,1.75,0,0,0,1.66-1.18l1.62-.54A3.28,3.28,0,0,1,763.44,436.15Zm43.75-24.06a3.28,3.28,0,1,1-3.28,3.28A3.29,3.29,0,0,1,807.19,412.09Z" transform="translate(-402.32 -19)"/><path class="cls-1" d="M483.72,423H436.89v2.18h46.83a1.76,1.76,0,0,0,1.37.69,1.78,1.78,0,1,0,0-3.56A1.76,1.76,0,0,0,483.72,423Z" transform="translate(-402.32 -19)"/><path class="cls-1" d="M502.23,417.15a1.78,1.78,0,0,0,0-3.56,1.73,1.73,0,0,0-1.37.69H428.14v2.18h72.72A1.73,1.73,0,0,0,502.23,417.15Z" transform="translate(-402.32 -19)"/><path class="cls-1" d="M545.7,459.51l7.84-7.91h8.57l9.38-9.53V361.78H458.93a1.76,1.76,0,0,0-1.37-.69,1.78,1.78,0,1,0,1.37,2.88H569.31v48.76l-6.57-6.56V394.91a5.47,5.47,0,1,0-2.18,0v12.16l8.75,8.75v25.35l-8.12,8.24H518.25l-10.2,10.34V580.48l-85.58-.23-8.16,2.67a2.46,2.46,0,0,0-.57-.38v-18.6h58.73a2.49,2.49,0,1,0,2.33-3.37,2.46,2.46,0,0,0-2.07,1.18H411.55v20.79a2.46,2.46,0,0,0-1.41,2.22,2.5,2.5,0,0,0,2.5,2.5,2.47,2.47,0,0,0,2.46-2.33l7.55-2.49,87.59.24v-122l8.93-9h31.29l-5.67,5.72H517.35v17.11a1.77,1.77,0,1,0,2.88,1.37,1.76,1.76,0,0,0-.69-1.37V459.51Zm14.86-66.88a3.28,3.28,0,1,1,2.18,0v-3.51h-2.18Z" transform="translate(-402.32 -19)"/><path class="cls-1" d="M851.2,344.28H764.43a5.47,5.47,0,1,0,0,2.19h86.25l16.67,8.33v31.68l-16-16H807.65L790.15,353h-17a5.47,5.47,0,1,0,0,2.19h16.06l17.5,17.5h43.75l16.86,16.86V404l-3.09-3.1a5.49,5.49,0,1,0-1.55,1.55l4.64,4.64v8.75l9.39,9.39h35.91l8.75-8.75h24.44a2.46,2.46,0,0,0,2.13,1.27,2.5,2.5,0,1,0-2.31-3.45H920.49L911.74,423H877.65l-8.11-8.11V353.45Zm-92.13,4.37a3.28,3.28,0,1,1,3.28-3.28A3.28,3.28,0,0,1,759.07,348.65Zm8.75,8.75a3.28,3.28,0,1,1,3.28-3.28A3.28,3.28,0,0,1,767.82,357.4Zm94.83,41.88-1.22-1.22a1.06,1.06,0,0,0,0-.19,1.78,1.78,0,1,0-1.78,1.78,1.42,1.42,0,0,0,.2,0l1.21,1.22a3.28,3.28,0,1,1,1.88-3A3.32,3.32,0,0,1,862.65,399.28Z" transform="translate(-402.32 -19)"/><path class="cls-1" d="M585.76,635.5l0,0,13.74-13.74a5.49,5.49,0,1,0-1.55-1.55l-12.23,12.24v-23.2l8.56-8.56V573.45l7.7-7.7a1.29,1.29,0,0,0,.19,0,1.78,1.78,0,1,0-1.77-1.78,1.06,1.06,0,0,0,0,.19l-6.16,6.17V553.52a5.47,5.47,0,1,0-2.19,0v46.3l-8.56,8.55v43.8l-6.79,7.74L569,652.13V609.28l17-17v-23a5.47,5.47,0,1,0-2.19.11v21.94L569,606.19V554.87h-9.11v-6.2h17.5V538H551.12v-6.29h34.64V520.6H541.28v-6.47h53.59V503.47H551.12v-7.59h35V485.37H558.78v-6.92h18.59V467.73h-6a5.08,5.08,0,1,0-.09,2.19h3.88v6.35h-18.6v11.29h27.35v6.13h-35v12h43.75v6.29H539.1v10.85h44.47v6.74H548.94V540.2h26.25v6.29h-17.5v10.57h9.11v31.82l-6.14-6.14c0-.07,0-.13,0-.2a1.78,1.78,0,1,0-1.77,1.78,1.29,1.29,0,0,0,.19,0l7.69,7.7v61l16.77,16.78v14.77l-14.09-14.1a1.87,1.87,0,0,0,.19-.78,1.78,1.78,0,1,0-2.42,1.65l16.32,16.32v14.67l-24.06-23.62V627.08L550,617.55V600.16l.1-.1L550,600V580.14a5.48,5.48,0,1,0-2.19,0v17.62l-6-6a1.06,1.06,0,0,0,0-.19A1.78,1.78,0,1,0,540,593.3c.07,0,.13,0,.19,0l7.6,7.58v17.6l9.54,9.54v30.88l-15.4-15.39a1.18,1.18,0,0,0,0-.2,1.78,1.78,0,1,0-1.78,1.78c.07,0,.13,0,.2,0L557.33,662v17.67l17.51,17.2-6.93,6.59-34.65-34.19V486.93l15.94-15.88a2.44,2.44,0,0,0,.47.09,2.5,2.5,0,1,0-2.5-2.49,2.41,2.41,0,0,0,.26,1.07L531.07,486V670.16l36.81,36.32,8.52-8.11,7.17,7V716a2.49,2.49,0,1,0,3.59,2.22,2.46,2.46,0,0,0-1.4-2.22V686.84l0,0,0,0V668.89l-7.43-7.43,7.43-8.47ZM602.55,614a3.28,3.28,0,1,1,0,6.56,3.21,3.21,0,0,1-1.41-.33l1.22-1.21a1.29,1.29,0,0,0,.19,0,1.78,1.78,0,1,0-1.78-1.78,1.42,1.42,0,0,0,0,.2l-1.21,1.2a3.14,3.14,0,0,1-.33-1.4A3.28,3.28,0,0,1,602.55,614Zm-12.61-65.79a3.29,3.29,0,1,1,4.38,3.08v-1.72a1.74,1.74,0,0,0,.68-1.36,1.78,1.78,0,1,0-3.55,0,1.74,1.74,0,0,0,.68,1.36v1.72A3.27,3.27,0,0,1,589.94,548.16ZM581.38,564a3.29,3.29,0,1,1,4.65,3v-1.88a1.68,1.68,0,0,0,.42-1.1,1.78,1.78,0,0,0-3.56,0,1.74,1.74,0,0,0,1,1.55v1.62A3.28,3.28,0,0,1,581.38,564Zm-14.94-92.5a2.87,2.87,0,1,1,0-5.73,2.84,2.84,0,0,1,2.68,2h-1.19a1.75,1.75,0,0,0-1.49-.86,1.78,1.78,0,1,0,0,3.55,1.75,1.75,0,0,0,1.22-.5H569A2.85,2.85,0,0,1,566.44,471.51ZM547.79,576.15v1.72a3.28,3.28,0,1,1,2.19,0v-1.72a1.77,1.77,0,1,0-2.88-1.37A1.74,1.74,0,0,0,547.79,576.15Z" transform="translate(-402.32 -19)"/><path class="cls-1" d="M420.28,461.82a5.48,5.48,0,1,0,2.19,0V450h15.45v2.51a5.47,5.47,0,1,0,2.19,0V450h15.17v10.71a5.48,5.48,0,1,0,2.19,0V450H473v2.51a5.47,5.47,0,1,0,2.19,0V450h6.61a1.72,1.72,0,0,0,1.36.69,1.78,1.78,0,0,0,0-3.56,1.72,1.72,0,0,0-1.36.69h-60l-16.38-15.36,11.6-12,12.63,13.16h65.12a5.47,5.47,0,1,0,0-2.19H430.59l-20.92-21.79a2.45,2.45,0,0,0-2-3.86v-6.88h37.42a5.48,5.48,0,1,0,.19-2.19H405.53v1.55h-.09v8.88a2.43,2.43,0,0,0-.31,1.14,2.5,2.5,0,0,0,2.5,2.5l.09,0,7.8,8.13-13.2,13.67,18,16.84Zm54.92-7a3.29,3.29,0,1,1-2.19,0v2.87h2.19ZM457.47,463a3.28,3.28,0,1,1-2.19,0v3.42h2.19Zm-17.36-8.2a3.29,3.29,0,1,1-2.19,0v2.87h2.19Zm60-25.61a3.28,3.28,0,1,1-3.07,4.42h4.16v-2.19H497A3.28,3.28,0,0,1,500.13,429.19ZM447.58,396.7a3.26,3.26,0,1,1-.34,2.19h3.21V396.7Zm-25.11,69.72v-2.33a3.28,3.28,0,1,1-2.19,0v2.33Z" transform="translate(-402.32 -19)"/><path class="cls-1" d="M637,699.06a1.78,1.78,0,0,0-1.78,1.78,1.74,1.74,0,0,0,.68,1.36v21.3H435c-9.09,0-15-4.13-17.91-8.6a2.55,2.55,0,0,0,.44-.87H520.09V690H417.16l14.51-10.43h11.42a5.48,5.48,0,1,0,0-2.19H431L413.41,690h-4.93a2.56,2.56,0,0,0-.85-.69V670.91a2.48,2.48,0,0,0,1.13-1.11l108.62.1a1.75,1.75,0,0,0,1.3.59,1.78,1.78,0,1,0,0-3.56,1.75,1.75,0,0,0-1.43.79l-108.43-.11a2.49,2.49,0,1,0-3.38,3.25v18.47a2.48,2.48,0,1,0,3.5,2.82h109v19.69H417.08a2.42,2.42,0,0,0-1.94-1,2.49,2.49,0,0,0-.09,5c3.22,5.09,9.77,9.85,19.92,9.85H638.12V702.2a1.71,1.71,0,0,0,.68-1.36A1.78,1.78,0,0,0,637,699.06Zm-188.58-22.4a1.76,1.76,0,0,0-1.37.69h-1.71a3.28,3.28,0,1,1,0,2.19h1.71a1.77,1.77,0,1,0,1.37-2.88Z" transform="translate(-402.32 -19)"/><path class="cls-1" d="M899.15,721a1.76,1.76,0,0,0-1.37.69H808.72l-4.21-3.88,7.07-7.1H935.27v-53a1.77,1.77,0,0,0-.72-3.39,1.78,1.78,0,0,0-1.78,1.78,1.73,1.73,0,0,0,.31.94v51.47H916V674.34a1.76,1.76,0,1,0-2.87-1.37,1.75,1.75,0,0,0,.68,1.37v34.21H810.68l-8.21,8.23H775.71V622.59H756.09L746.7,632V700.8H687.64V620.72a1.73,1.73,0,0,0,.69-1.37,1.78,1.78,0,0,0-3.56,0,1.7,1.7,0,0,0,.69,1.37v26l-6.32-6.32V620.72a1.76,1.76,0,0,0,.68-1.37,1.78,1.78,0,0,0-3.55,0,1.73,1.73,0,0,0,.68,1.37v20.61l8.51,8.51v24.25l-15.58-15.57v-37.8a1.76,1.76,0,1,0-2.87-1.37,1.73,1.73,0,0,0,.68,1.37v38.7l17.77,17.76V703h63.43V632.89l8.11-8.11h16.52v92H660.67V647.67l-14-14V611.18H736l-4.24-60.37h18.56l6.16,13.65v29.19a1.76,1.76,0,0,0-.69,1.37,1.78,1.78,0,1,0,2.88-1.37V564.21l-7-15.58H731.63l-1-14.31h31.89l8,17.45V603a1.77,1.77,0,1,0,2.18,0V562.5l6.56,5.42v17a1.75,1.75,0,0,0-.68,1.37,1.78,1.78,0,1,0,3.55,0,1.75,1.75,0,0,0-.68-1.37v-18l-8.75-7.21v-8.15l-8.78-19.4H730.47L729,511.26h43.85V490.41a5.07,5.07,0,1,0-2.19,0v18.66h-44l7,99.92h-89.2v25.58l14,14v22.16l-8.77,8.77v40.14a5.07,5.07,0,1,0,2.19,0V680.42l6.58-6.58V719h144l5.36,4.94h89.92a1.76,1.76,0,0,0,1.37.69,1.78,1.78,0,0,0,0-3.56ZM768.88,485.47a2.88,2.88,0,0,1,5.75,0,2.91,2.91,0,0,1-1.78,2.66v-1.29a1.75,1.75,0,0,0,.68-1.37,1.78,1.78,0,0,0-3.56,0,1.73,1.73,0,0,0,.69,1.37v1.29A2.89,2.89,0,0,1,768.88,485.47ZM653.68,724.59a2.88,2.88,0,1,1-4-2.66v1.29a1.73,1.73,0,0,0-.68,1.37,1.78,1.78,0,0,0,3.55,0,1.73,1.73,0,0,0-.68-1.37v-1.29A2.89,2.89,0,0,1,653.68,724.59Z" transform="translate(-402.32 -19)"/><circle class="cls-1" cx="52.9" cy="495.86" r="1.78"/><path class="cls-1" d="M448.25,514.86a1.78,1.78,0,1,0-1.77,1.77A1.78,1.78,0,0,0,448.25,514.86Z" transform="translate(-402.32 -19)"/><path class="cls-1" d="M439.5,514.86a1.78,1.78,0,1,0-1.78,1.77A1.78,1.78,0,0,0,439.5,514.86Z" transform="translate(-402.32 -19)"/><path class="cls-1" d="M429,516.63a1.78,1.78,0,1,0-1.78-1.77A1.78,1.78,0,0,0,429,516.63Z" transform="translate(-402.32 -19)"/><circle class="cls-1" cx="18.3" cy="495.86" r="1.78"/><path class="cls-1" d="M817,239a1.78,1.78,0,1,0,3-1.31V117L796.1,93.12a5.62,5.62,0,1,0-1.6,1.49l23.28,23.28V237.57A1.74,1.74,0,0,0,817,239ZM794.51,91.52l-1.17-1.17a1.51,1.51,0,0,0,.07-.37,1.78,1.78,0,1,0-1.77,1.77h0L792.9,93a3.33,3.33,0,0,1-1.26.25A3.28,3.28,0,1,1,794.91,90,3.21,3.21,0,0,1,794.51,91.52Z" transform="translate(-402.32 -19)"/><path class="cls-1" d="M833.73,274.7a1.78,1.78,0,0,0,3.55,0,1.75,1.75,0,0,0-.68-1.37V99.82L829.77,93a5.49,5.49,0,1,0-1.55,1.55l6.19,6.19v172.6A1.75,1.75,0,0,0,833.73,274.7ZM828.16,91.38,827,90.17a1.29,1.29,0,0,0,0-.19,1.78,1.78,0,1,0-1.78,1.77c.07,0,.13,0,.2,0l1.21,1.21a3.21,3.21,0,0,1-1.41.33A3.28,3.28,0,1,1,828.49,90,3.14,3.14,0,0,1,828.16,91.38Z" transform="translate(-402.32 -19)"/><path class="cls-1" d="M825.16,256.41a1.78,1.78,0,0,0,3.55,0A1.73,1.73,0,0,0,828,255V108.24L812.79,93a5.49,5.49,0,1,0-1.55,1.55l14.6,14.6V255A1.73,1.73,0,0,0,825.16,256.41Zm-14-165L810,90.17c0-.07,0-.12,0-.19a1.78,1.78,0,1,0-1.78,1.77c.07,0,.12,0,.19,0l1.21,1.21a3.17,3.17,0,0,1-1.4.33,3.33,3.33,0,1,1,2.95-1.88Z" transform="translate(-402.32 -19)"/><path class="cls-1" d="M624.53,509.42a1.78,1.78,0,1,0,1.78,1.78A1.78,1.78,0,0,0,624.53,509.42Z" transform="translate(-402.32 -19)"/><path class="cls-1" d="M624.53,518.18a1.78,1.78,0,1,0,1.78,1.78A1.78,1.78,0,0,0,624.53,518.18Z" transform="translate(-402.32 -19)"/><path class="cls-1" d="M624.53,526.93a1.78,1.78,0,1,0,1.78,1.77A1.78,1.78,0,0,0,624.53,526.93Z" transform="translate(-402.32 -19)"/><path class="cls-1" d="M624.53,500.67a1.78,1.78,0,1,0,1.78,1.78A1.78,1.78,0,0,0,624.53,500.67Z" transform="translate(-402.32 -19)"/><path class="cls-1" d="M624.53,491.92a1.78,1.78,0,1,0,1.78,1.78A1.78,1.78,0,0,0,624.53,491.92Z" transform="translate(-402.32 -19)"/><path class="cls-1" d="M624.53,483.18a1.78,1.78,0,1,0,1.78,1.77A1.78,1.78,0,0,0,624.53,483.18Z" transform="translate(-402.32 -19)"/><path class="cls-1" d="M624.53,474.82a1.78,1.78,0,1,0,1.78,1.78A1.78,1.78,0,0,0,624.53,474.82Z" transform="translate(-402.32 -19)"/><path class="cls-1" d="M516.53,320.25a1.77,1.77,0,1,0,1.37-2.87,1.75,1.75,0,0,0-1.37.68H441.34V299a2.49,2.49,0,1,0-3.55-2.25,2.45,2.45,0,0,0,1.36,2.19v21.27Z" transform="translate(-402.32 -19)"/><path class="cls-1" d="M508.61,265a1.78,1.78,0,1,0,1.78,1.77A1.78,1.78,0,0,0,508.61,265Z" transform="translate(-402.32 -19)"/><path class="cls-1" d="M508.61,273.71a1.78,1.78,0,1,0,1.78,1.78A1.78,1.78,0,0,0,508.61,273.71Z" transform="translate(-402.32 -19)"/><path class="cls-1" d="M508.61,282.46a1.78,1.78,0,1,0,1.78,1.78A1.78,1.78,0,0,0,508.61,282.46Z" transform="translate(-402.32 -19)"/><path class="cls-1" d="M508.61,256.21a1.78,1.78,0,1,0,1.78,1.78A1.78,1.78,0,0,0,508.61,256.21Z" transform="translate(-402.32 -19)"/><path class="cls-1" d="M508.61,247.46a1.78,1.78,0,1,0,1.78,1.78A1.78,1.78,0,0,0,508.61,247.46Z" transform="translate(-402.32 -19)"/><path class="cls-1" d="M508.61,238.71a1.78,1.78,0,1,0,1.78,1.78A1.78,1.78,0,0,0,508.61,238.71Z" transform="translate(-402.32 -19)"/><path class="cls-1" d="M508.61,230.35a1.78,1.78,0,1,0,1.78,1.78A1.78,1.78,0,0,0,508.61,230.35Z" transform="translate(-402.32 -19)"/><path class="cls-1" d="M865.45,212.05a1.78,1.78,0,1,0-1.78-1.77A1.78,1.78,0,0,0,865.45,212.05Z" transform="translate(-402.32 -19)"/><path class="cls-1" d="M865.45,203.3a1.78,1.78,0,1,0-1.78-1.77A1.78,1.78,0,0,0,865.45,203.3Z" transform="translate(-402.32 -19)"/><path class="cls-1" d="M865.45,194.55a1.78,1.78,0,1,0-1.78-1.77A1.78,1.78,0,0,0,865.45,194.55Z" transform="translate(-402.32 -19)"/><path class="cls-1" d="M865.45,185.8a1.78,1.78,0,1,0-1.78-1.77A1.78,1.78,0,0,0,865.45,185.8Z" transform="translate(-402.32 -19)"/><path class="cls-1" d="M865.45,177.45a1.78,1.78,0,1,0-1.78-1.78A1.78,1.78,0,0,0,865.45,177.45Z" transform="translate(-402.32 -19)"/><path class="cls-1" d="M666.79,89a1.78,1.78,0,1,0,0,3.55,1.73,1.73,0,0,0,1.36-.68h60.34l9.42-9.43V45.77h-57a5.47,5.47,0,1,0,0,2.19h54.82V81.54l-8.15,8.14h-7.29l-9.06-9.06H697.86a5.45,5.45,0,1,0-.06,2.19h12.52l6.87,6.87h-49A1.73,1.73,0,0,0,666.79,89Zm8.76-40.36a1.75,1.75,0,0,0,1.37-.68h1.71a3.28,3.28,0,1,1,0-2.19h-1.71a1.75,1.75,0,0,0-1.37-.68,1.78,1.78,0,1,0,0,3.55Zm16.94,34.69a1.74,1.74,0,0,0,1.26-.52h1.77a3.29,3.29,0,1,1,.11-2.19H694a1.77,1.77,0,1,0-1.48,2.71Z" transform="translate(-402.32 -19)"/><path class="cls-1" d="M555.79,151.58a1.74,1.74,0,0,0-1.45.48,1.78,1.78,0,0,0,2.51,2.52,1.73,1.73,0,0,0,.48-1.45l28.6-28.6.81,8.47-12,12a1.73,1.73,0,0,0-1.45.48A1.78,1.78,0,0,0,575.8,148a1.75,1.75,0,0,0,.48-1.45L589,133.81l-1.08-11.28,5.75-5.76,7.51-19.93L580.82,76.46a5,5,0,1,0-4.42,2.64,5,5,0,0,0,3-1L598.67,97.4l-6.7,18ZM576.4,76.92a2.88,2.88,0,1,1,2.87-2.87,2.81,2.81,0,0,1-.15.71l-1-1a1.74,1.74,0,0,0-1.71-1.48,1.78,1.78,0,1,0,0,3.55,1.8,1.8,0,0,0,.57-.11l.81.8A2.75,2.75,0,0,1,576.4,76.92Z" transform="translate(-402.32 -19)"/><path class="cls-1" d="M956.67,398.1a2.49,2.49,0,0,0-2.5-2.5,2.46,2.46,0,0,0-2.08,1.18H886.4l-8.11-8.11V346.35a5.47,5.47,0,1,0-2.19,0v43.23l9.39,9.38h66.35a2.51,2.51,0,0,0,1.23,1.35v38.76a2.43,2.43,0,0,0-1.24,1.46H851.4l-16.86-16.86v-35l-9.39-9.39H738.29V353.67l-18.14-18.14H676.21l-15.51-7.75a1.76,1.76,0,0,0-1.75-1.69,1.78,1.78,0,1,0,0,3.56,1.57,1.57,0,0,0,.43-.09l16.31,8.16h43.55l16.86,16.86v26.89h88.14l8.11,8.11v35l18.14,18.15H952.16a2.46,2.46,0,0,0,2,1.08,2.49,2.49,0,0,0,1.09-4.73V400.31A2.45,2.45,0,0,0,956.67,398.1ZM873.91,341a3.29,3.29,0,1,1,3.28,3.28A3.28,3.28,0,0,1,873.91,341Z" transform="translate(-402.32 -19)"/><path class="cls-1" d="M405.44,329.53v50.93h.09v1.94h30.26v8.24h23.69l17.4,17.4h42.94a1.71,1.71,0,0,0,1.36.68,1.78,1.78,0,1,0,0-3.55,1.74,1.74,0,0,0-1.36.68h-42l-17.4-17.4H438V382.4h30.25l16.49,16.49h52a1.74,1.74,0,0,0,1.36.68,1.78,1.78,0,0,0,0-3.56,1.72,1.72,0,0,0-1.36.69H485.62l-16.49-16.49h-61.5V329.32a2.44,2.44,0,0,0,1.09-1.44h20.33l10.21,9.84h22.37a5.46,5.46,0,1,0,.22-2.19H440.14l-7.94-7.65h57.74l11.12,10.38h20.77a5.47,5.47,0,1,0,0-2.18H501.93l-8.78-8.2h110.7a1.79,1.79,0,0,0,.28.27V437.36a5.47,5.47,0,1,0,2.18,0V328.15a1.74,1.74,0,0,0,.69-1.37,1.78,1.78,0,0,0-1.78-1.77,1.75,1.75,0,0,0-1.37.68H408.28a2.43,2.43,0,0,0-1.93-1,2.49,2.49,0,0,0-.91,4.81Zm58.78,6a3.27,3.27,0,1,1-.4,2.19H467v-2.19Zm59.92.55a3.29,3.29,0,1,1,0,2.18h4.19v-2.18ZM607,442.72a1.76,1.76,0,0,0-.69-1.37v-1.71a3.28,3.28,0,1,1-2.18,0v1.71a1.76,1.76,0,1,0,2.87,1.37Z" transform="translate(-402.32 -19)"/><path class="cls-1" d="M451.13,288.51a2.5,2.5,0,1,0-3.5,2.29V312H569a1.76,1.76,0,0,0,1.37.69,1.78,1.78,0,0,0,0-3.56,1.76,1.76,0,0,0-1.37.69H449.81V290.67A2.44,2.44,0,0,0,451.13,288.51Z" transform="translate(-402.32 -19)"/><path class="cls-1" d="M405.44,505.87v33.75h63.65V554H405.44v42a2.48,2.48,0,0,0,1.13,4.7,2.46,2.46,0,0,0,2.38-1.91l22.18-7.38h89.5V500a5.47,5.47,0,1,0-2.18,0v89.25H431l-22.46,7.44a2.56,2.56,0,0,0-.86-.71V556.19h63.65V537.43H407.63V505.87a2.49,2.49,0,0,0,1.4-2.22,2.32,2.32,0,0,0-.15-.74l2.7-2.69,55.2.21a5.47,5.47,0,1,0,1.49-4.93,5.3,5.3,0,0,0-1.47,2.75L410.67,498l-3.28,3.28a2.68,2.68,0,0,0-.86-.16,2.48,2.48,0,0,0-1.09,4.72Zm110.82-11.2a3.28,3.28,0,1,1,4.37,3.08V496a1.76,1.76,0,0,0,.69-1.37,1.78,1.78,0,0,0-3.56,0,1.76,1.76,0,0,0,.69,1.37v1.71A3.29,3.29,0,0,1,516.26,494.67ZM473.4,498.1a1.79,1.79,0,0,0-2.52,0s-.06.12-.1.17l-1.72,0a3.47,3.47,0,0,1,.76-1.21,3.28,3.28,0,1,1,0,4.64,3,3,0,0,1-.76-1.24h1.71a1.63,1.63,0,0,0,.11.17,1.78,1.78,0,0,0,2.52-2.52Z" transform="translate(-402.32 -19)"/><path class="cls-1" d="M406.57,662.34a2.49,2.49,0,0,0,2.22-1.4H509.37a1.75,1.75,0,0,0,1.37.68,1.78,1.78,0,0,0,0-3.56,1.73,1.73,0,0,0-1.37.69H408.79a2.53,2.53,0,0,0-1.16-1.15V628.84l5.92,5.83h95.82a1.75,1.75,0,0,0,1.37.68,1.78,1.78,0,0,0,0-3.55,1.75,1.75,0,0,0-1.37.68H459.92l7.05-7.05h23.86a1.76,1.76,0,0,0,3.15-1.09,1.78,1.78,0,0,0-1.78-1.78,1.76,1.76,0,0,0-1.37.68H466.06l-9.24,9.24H433.75L449,617.25h25.44a1.77,1.77,0,1,0,1.37-2.87,1.75,1.75,0,0,0-1.37.68H451.27L457,609.6a1.69,1.69,0,0,0,.24,0,1.78,1.78,0,1,0-1.78-1.78s0,.1,0,.15l-7.44,7h0l-17.42,17.42H414.44l-6.81-6.71v-.67l6.64-7.85h15.47a1.74,1.74,0,0,0,1.36.68,1.78,1.78,0,1,0,0-3.55,1.73,1.73,0,0,0-1.36.68H413.25l-5.62,6.65v-13L430.39,601a2.47,2.47,0,0,0,4.15-.75h57.2l17.05,17h8.56V641.5H413.08l-.44-.44v2.63h106.9V615.07H509.7l-17.05-17H434.33a2.43,2.43,0,0,0-4.51.81l-24.38,8.34v50.47a2.48,2.48,0,0,0,1.13,4.69Z" transform="translate(-402.32 -19)"/><path class="cls-1" d="M758.43,451.46h66.72l12.67-12.67,12.67,12.67h56.89l23.75,6.92h24.92a5.08,5.08,0,1,0,0-2.14H931.65l-23.75-6.91-56.5-.06-25.61-25.61V388H676.4l-4.65-4.65a5.35,5.35,0,0,0,.92-3,5.49,5.49,0,1,0-2.46,4.56l5.28,5.29H823.6v34.35L829,430l-12,12H745.51a2.47,2.47,0,0,0-2-1.16,2.51,2.51,0,0,0-2.51,2.51,2.47,2.47,0,0,0,1.89,2.37,53.4,53.4,0,0,1-26.9,57.65l-.62.34,6.63,94.3H658.48l6.61-94.3-.61-.33a53.55,53.55,0,0,1-5.59-90.66l0,0,.68-.49V345.12l-8.75-17.5V311.47H833l8.75,8.75H963.09v-9.58A29.57,29.57,0,0,0,958.56,295a5,5,0,1,0-8.79-3.86H842.65l-2.83-2.82,11.3-3.74h63.56a1.74,1.74,0,0,0,1.46.83,1.78,1.78,0,1,0-1.27-3H850.94l-12.8,4.25-4.24-4.25H799.81a1.75,1.75,0,0,0-1.37-.68,1.77,1.77,0,0,0-1.36.68H773.56a1.71,1.71,0,0,0-2.73,0H623.11l-26.25,17.5H458.29V283.31h-2.18V302H597.53l26.25-17.5h7.32v6.56h-8.75V423.85a1.77,1.77,0,1,0,2.87,1.37,1.75,1.75,0,0,0-.68-1.37V293.29h6.56v98.54a5.47,5.47,0,1,0,2.19,0V293.29h191.4l12.81-4.24,4.24,4.24h5.71a5.47,5.47,0,1,0,7,0h6.13a5.47,5.47,0,1,0,7,0h6.13a5.47,5.47,0,1,0,7,0h6.14a5.47,5.47,0,1,0,7,0H900a5.47,5.47,0,1,0,7,0h6.14a5.47,5.47,0,1,0,7,0h30a5,5,0,0,0,6.77,3,27.37,27.37,0,0,1,4.11,14.38V318H842.65l-8.75-8.75H648.6v18.85l8.75,17.5v65.55A55.72,55.72,0,0,0,662.81,505l-6.68,95.24h68.16L717.6,505a55.86,55.86,0,0,0,28.51-48.59A56.47,56.47,0,0,0,745,445.31a2.31,2.31,0,0,0,.8-1.09h72.13l12.67-12.67,5.69,5.69-12,12h-67a2.43,2.43,0,0,0-1.27-.39,2.47,2.47,0,0,0-1.2,4.64c0,1,.11,1.92.11,2.87A64.07,64.07,0,0,1,753.13,471a2.48,2.48,0,0,0-2,2.41,2.5,2.5,0,0,0,2.5,2.5,2.46,2.46,0,0,0,2.22-1.41h48.9l-10.24,10.24V505a5.46,5.46,0,1,0,2.18,0V485.65L813.35,469H960.56v59.15l-16.2,16.2H838.06V675a2.5,2.5,0,1,0,2.18,0V546.51h105l15.3-15.29v24.83l-15,16.45h-79.8l-20.09,17.09v85.48a2.47,2.47,0,1,0,2.19-.08V590.61l18.7-15.92H880l-6.24,6.24a1.77,1.77,0,0,0-1.36,1.7,1.78,1.78,0,1,0,3.56,0,1.67,1.67,0,0,0-.14-.67l7.28-7.27h23.38l-5.69,5.71a.71.71,0,0,0-.2,0,1.78,1.78,0,1,0,1.78,1.77,1.62,1.62,0,0,0,0-.19l7.24-7.25h23.27l-5.59,5.59a1.06,1.06,0,0,0-.19,0,1.78,1.78,0,1,0,1.78,1.78,1.42,1.42,0,0,0,0-.2l7.13-7.13H946.5l14.06-15.41v21.89l-16.07,16.06H873.7l-10.06,10.06v80.94a5.46,5.46,0,1,0,2.18,0v-58.2l6.74,13.62v19.82a5.47,5.47,0,1,0,2.18,0V643.16l-8.92-18v-13l16.78,31.07V659a1.76,1.76,0,0,0-.69,1.37,1.78,1.78,0,1,0,3.55,0,1.75,1.75,0,0,0-.68-1.37V642.6l-18.7-34.66,8.52-8.52h70.8l15.16-15.16V598.7l-15,16.82H891.1v22a5.48,5.48,0,1,0,2.19,0v-19.8H946.5L960.56,602v55.74L954,651.16v-2.93a5.47,5.47,0,1,0-2.19,0v3.84l8.76,8.75V683.7h0v.62L954,676.38V674.2a5.47,5.47,0,1,0-2.19,0v3l8.71,10.6V690a27.39,27.39,0,0,1-23.34,27,5.06,5.06,0,1,0,.19,2.18A29.58,29.58,0,0,0,962.69,690v-1.36h.06V466.78H812.45l-5.55,5.54H755.82a2.33,2.33,0,0,0-.57-.75A66.79,66.79,0,0,0,757,456.4c0-.9-.06-1.81-.1-2.73A2.47,2.47,0,0,0,758.43,451.46Zm202.57,3a2.88,2.88,0,1,1-2.66,3.92h1.26a1.75,1.75,0,0,0,1.4.73,1.78,1.78,0,1,0,0-3.55,1.75,1.75,0,0,0-1.37.68h-1.28A2.89,2.89,0,0,1,961,454.47ZM670.15,381.78l-1.21-1.22c0-.06,0-.12,0-.19a1.78,1.78,0,1,0-1.77,1.78,1.62,1.62,0,0,0,.19,0l1.21,1.21a3.17,3.17,0,0,1-1.4.33,3.31,3.31,0,1,1,2.95-1.87Zm-34.67,15.41a3.28,3.28,0,1,1-4.38-3.07v1.71a1.71,1.71,0,0,0-.68,1.36,1.78,1.78,0,1,0,3.55,0,1.71,1.71,0,0,0-.68-1.36v-1.71A3.27,3.27,0,0,1,635.48,397.19ZM633.29,291.1v-6.56H770.83a1.72,1.72,0,0,0,1.37.68,1.62,1.62,0,0,0,.19,0l5.91,5.92Zm148.11,0-6.57-6.56h22.25a1.74,1.74,0,0,0,1.36.68,1.42,1.42,0,0,0,.2,0l5.92,5.92Zm43.12,0H807.65l-6.57-6.56H833l2.83,2.82Zm26.42,9.64a3.28,3.28,0,1,1,3.29-3.28A3.28,3.28,0,0,1,850.94,300.74Zm13.13,0a3.28,3.28,0,1,1,3.28-3.28A3.28,3.28,0,0,1,864.07,300.74Zm13.12,0a3.28,3.28,0,1,1,3.29-3.28A3.28,3.28,0,0,1,877.19,300.74Zm13.13,0a3.28,3.28,0,1,1,3.28-3.28A3.29,3.29,0,0,1,890.32,300.74Zm13.12,0a3.28,3.28,0,1,1,3.29-3.28A3.29,3.29,0,0,1,903.44,300.74Zm13.13,0a3.28,3.28,0,1,1,3.28-3.28A3.28,3.28,0,0,1,916.57,300.74Zm38.21-12a2.88,2.88,0,0,1,2.87,2.87,2.73,2.73,0,0,1-.41,1.39l-.76-1a2.57,2.57,0,0,0,.08-.4,1.78,1.78,0,0,0-1.78-1.78,1.75,1.75,0,0,0-1.67,1.25H952A2.84,2.84,0,0,1,954.78,288.76Zm0,5.74a2.83,2.83,0,0,1-2.28-1.21h1.69a1.92,1.92,0,0,0,.58.11l.73,1A2.43,2.43,0,0,1,954.78,294.5ZM798.85,510.39a3.28,3.28,0,1,1-4.37-3.08V509a1.72,1.72,0,0,0-.69,1.36,1.78,1.78,0,1,0,3.56,0,1.72,1.72,0,0,0-.69-1.36v-1.72A3.29,3.29,0,0,1,798.85,510.39ZM868,693.59a3.28,3.28,0,1,1-4.31-3.1v3.1h2.18v-3.05A3.26,3.26,0,0,1,868,693.59Zm6.79-26.11v-1.72a3.28,3.28,0,1,1-2.18,0v1.72a1.74,1.74,0,0,0-.69,1.36,1.78,1.78,0,0,0,3.56,0A1.74,1.74,0,0,0,874.74,667.48Zm20.74-24.61a3.28,3.28,0,1,1-4.38-3.08v1.71a1.78,1.78,0,1,0,2.19,0v-1.71A3.28,3.28,0,0,1,895.48,642.87Zm56.32,1.36V646a3.29,3.29,0,1,1,2.19,0v-1.72a1.69,1.69,0,0,0,.69-1.36,1.78,1.78,0,0,0-3.56,0A1.71,1.71,0,0,0,951.8,644.23Zm0,26v1.72a3.29,3.29,0,1,1,2.19,0v-1.72a1.73,1.73,0,0,0,.69-1.37,1.78,1.78,0,0,0-3.56,0A1.75,1.75,0,0,0,951.8,670.21ZM932.37,721.4a2.87,2.87,0,1,1,2.53-4.15c-.41,0-.83.06-1.25.06a1.75,1.75,0,0,0-1.28-.56,1.78,1.78,0,1,0,0,3.56,1.74,1.74,0,0,0,1.46-.82q.61,0,1.23-.06A2.83,2.83,0,0,1,932.37,721.4Z" transform="translate(-402.32 -19)"/><path class="cls-1" d="M586.36,50.24a2.47,2.47,0,0,0,2.22-1.4h27.07a1.75,1.75,0,0,0,1.37.68,1.06,1.06,0,0,0,.19,0l8.11,13.15h43.1V69.5L648,76.32a5.42,5.42,0,1,0,.76,2.72,4.78,4.78,0,0,0-.07-.65l21.94-7.31V62.63h11.06a5.47,5.47,0,1,0,0-2.18H626.22l-7.46-12.51a1.42,1.42,0,0,0,0-.2,1.76,1.76,0,0,0-3.15-1.09H589.34a159.63,159.63,0,0,1,85.83-25.46h27.17A156.14,156.14,0,0,1,751,29a2.42,2.42,0,0,0,1,1.37V84.57l-16,16,1.45.65a95.56,95.56,0,0,1,16.34,9.31v.12h.17c32.67,23.08,53.63,66.78,53.63,114.77v39.95a5.06,5.06,0,1,0,2.19,0V225.38a162,162,0,0,0-9.28-54.33l4.23-4.22.14-38.27a5.4,5.4,0,0,0,2.75-1.48,5.47,5.47,0,1,0-7.74,0,5.38,5.38,0,0,0,2.8,1.49l-.14,37.36-2.88,2.87c-9-23.94-23.54-44.33-42-58.19h17.4a1.73,1.73,0,0,0,1.37.69,1.78,1.78,0,0,0,1.77-1.78,1.75,1.75,0,0,0-.68-1.37V74.78l6.25-12.5a5.51,5.51,0,1,0-1.95-1l-6.49,13v33.89a2.29,2.29,0,0,0-.27.27H754.65a98.61,98.61,0,0,0-14.89-8.59l14.35-14.35V30.67a2.48,2.48,0,1,0-2.73-3.85,158.21,158.21,0,0,0-49-7.82H675.17c-30.85,0-61.17,9.14-87.94,26.41a2.49,2.49,0,1,0-.87,4.83Zm56.91,32.08a3.28,3.28,0,1,1,0-6.56A3.25,3.25,0,0,1,645.84,77l-1.62.54a1.76,1.76,0,0,0-1-.31,1.78,1.78,0,1,0,0,3.56,1.75,1.75,0,0,0,1.65-1.18l1.63-.54A3.29,3.29,0,0,1,643.27,82.32ZM687,58.26a3.28,3.28,0,1,1-3.28,3.28A3.28,3.28,0,0,1,687,58.26Zm124.51,212a2.87,2.87,0,1,1-4-2.65v1.28a1.76,1.76,0,1,0,2.87,1.37,1.75,1.75,0,0,0-.68-1.37v-1.28A2.87,2.87,0,0,1,811.53,270.27Zm-9.07-145.8a1.63,1.63,0,0,0,.17.11v1.72a3.41,3.41,0,0,1-1.24-.76,3.28,3.28,0,1,1,4.64,0,3.22,3.22,0,0,1-1.21.75v-1.71a.83.83,0,0,0,.15-.11,1.77,1.77,0,0,0-2.51-2.51A1.78,1.78,0,0,0,802.46,124.47ZM785.17,53.74a3.28,3.28,0,1,1,0,6.56,2.58,2.58,0,0,1-.39,0l.77-1.54A1.75,1.75,0,0,0,787,57a1.78,1.78,0,1,0-3.55,0,1.73,1.73,0,0,0,.18.75l-.76,1.52a3.27,3.27,0,0,1,2.35-5.55Z" transform="translate(-402.32 -19)"/><path class="cls-1" d="M772.86,39.27a2.41,2.41,0,0,0,1.46-.53C818.58,61.35,852,102.93,868.5,153.06H847.22l0,92.53a5.45,5.45,0,1,0,2.19,0l0-90.34H869.2A231.48,231.48,0,0,1,880,225.38V269h-13.8l0-29.09a5.46,5.46,0,1,0-2.18,0l0,31.28H882.2v-45.8c0-81.71-41.86-155.34-106.85-188.57,0,0,0,0,0,0a2.5,2.5,0,1,0-2.5,2.5ZM850.13,251a1.75,1.75,0,0,0-.68-1.37v-1.72a3.28,3.28,0,1,1-2.19,0v1.72a1.72,1.72,0,0,0-.68,1.37,1.78,1.78,0,0,0,3.55,0Zm13.93-15v1.71a3.29,3.29,0,1,1,2.19,0v-1.71a1.76,1.76,0,0,0,.69-1.37,1.78,1.78,0,0,0-3.56,0A1.75,1.75,0,0,0,864.06,235.91Z" transform="translate(-402.32 -19)"/><path class="cls-1" d="M500.88,184.18a2.48,2.48,0,0,0,2.31-1.56l7.63-.05,67.75-67.76a1.75,1.75,0,0,0,1.45-3,1.76,1.76,0,0,0-3,1.46l-35,35v-10l16.88-16.87a1.77,1.77,0,1,0-1.07-3,1.73,1.73,0,0,0-.48,1.45l-17.52,17.52v13.06l-16.32,16.32V145.19l18-18a1.73,1.73,0,0,0,1.44-.48,1.78,1.78,0,1,0-3-1.06L523.63,142l.22-7.94a1.43,1.43,0,0,0,.2-.14,1.78,1.78,0,1,0-2.52,0s.09.05.13.09l-.28,10.23v24.66l-11.45,11.45-6.9.06a2.5,2.5,0,0,0-1-.94c9.3-46.35,32.53-87.58,65.68-116.6a2.42,2.42,0,0,0,3.44-1.36h38.89L623.32,84.8v21.52a2.27,2.27,0,0,0-1.66,3c-16.57,11.91-30,28.81-39.3,48.71l-28.59,28.37-5.95-5.85a5,5,0,0,0,.94-2.92,5.12,5.12,0,1,0-2.57,4.38l6,5.92L526.07,213.6v12.6a5.47,5.47,0,1,0,2.18,0V214.52L580,163.44a155,155,0,0,0-7.35,22.12l-37.78,36.79v21.9a5.47,5.47,0,1,0,2.19,0v-21l34.65-33.73a162,162,0,0,0-2.85,17.09L543,231.09V262.3a5.47,5.47,0,1,0,2.19,0V232L568.47,210c-.47,5.08-.73,10.23-.73,15.42v8.53l-13.86,13.87a1.42,1.42,0,0,0-.2,0,1.78,1.78,0,1,0,1.78,1.78c0-.07,0-.13,0-.2L567.74,237v15l-4.5,4.5a1.29,1.29,0,0,0-.19,0,1.78,1.78,0,1,0,1.78,1.78c0-.07,0-.13,0-.19l3-3V276.6a5.06,5.06,0,1,0,2.19,0V225.38c0-47.34,20.3-90.9,53.13-114.41a2.45,2.45,0,0,0,1,.2,2.49,2.49,0,0,0,2.5-2.49,2.45,2.45,0,0,0-1-2V84.22L611.32,59.35H570.89a2.44,2.44,0,0,0-2.06-1.16,2.5,2.5,0,0,0-2.5,2.5,3.12,3.12,0,0,0,.09.44c-33.68,29.42-57.25,71.27-66.6,118.31a2.49,2.49,0,0,0,1.06,4.74Zm42.82-3.72a2.87,2.87,0,1,1,2.87-2.87,2.83,2.83,0,0,1-.36,1.32l-.83-.81a1.76,1.76,0,1,0-3.45-.51,1.75,1.75,0,0,0,1.57,1.73l1,1A2.92,2.92,0,0,1,543.7,180.46Zm-13.26,51.1a3.28,3.28,0,1,1-4.37-3.08v1.71a1.76,1.76,0,0,0-.69,1.37,1.78,1.78,0,0,0,3.56,0,1.76,1.76,0,0,0-.69-1.37v-1.71A3.29,3.29,0,0,1,530.44,231.56Zm8.75,18.05a3.28,3.28,0,1,1-4.37-3.08v1.71a1.76,1.76,0,0,0-.69,1.37,1.78,1.78,0,1,0,2.88-1.37v-1.71A3.27,3.27,0,0,1,539.19,249.61Zm8.21,18a3.29,3.29,0,1,1-4.38-3.07v1.71a1.71,1.71,0,0,0-.68,1.36,1.78,1.78,0,1,0,3.55,0,1.74,1.74,0,0,0-.68-1.36v-1.71A3.27,3.27,0,0,1,547.4,267.65Zm24.3,13.88a2.87,2.87,0,1,1-4-2.65v1.29a1.71,1.71,0,0,0-.68,1.36,1.78,1.78,0,1,0,3.55,0,1.71,1.71,0,0,0-.68-1.36v-1.29A2.87,2.87,0,0,1,571.7,281.53Z" transform="translate(-402.32 -19)"/></svg>